<mxfile host="app.diagrams.net" agent="Mozilla/5.0 (Windows NT 10.0; Win64; x64; rv:130.0) Gecko/20100101 Firefox/130.0" version="24.7.17">
  <diagram name="Page-1" id="2YBvvXClWsGukQMizWep">
    <mxGraphModel dx="1500" dy="1830" grid="1" gridSize="10" guides="1" tooltips="1" connect="1" arrows="1" fold="1" page="1" pageScale="1" pageWidth="850" pageHeight="1100" math="0" shadow="0">
      <root>
        <mxCell id="0" />
        <mxCell id="1" parent="0" />
        <mxCell id="aM9ryv3xv72pqoxQDRHE-1" value="&lt;div align=&quot;right&quot;&gt;VirtualTriageClinician &lt;br&gt;&lt;/div&gt;" style="shape=umlLifeline;perimeter=lifelinePerimeter;whiteSpace=wrap;html=1;container=0;dropTarget=0;collapsible=0;recursiveResize=0;outlineConnect=0;portConstraint=eastwest;newEdgeStyle={&quot;edgeStyle&quot;:&quot;elbowEdgeStyle&quot;,&quot;elbow&quot;:&quot;vertical&quot;,&quot;curved&quot;:0,&quot;rounded&quot;:0};align=right;" parent="1" vertex="1">
          <mxGeometry y="40" width="140" height="300" as="geometry" />
        </mxCell>
        <mxCell id="aM9ryv3xv72pqoxQDRHE-2" value="" style="html=1;points=[];perimeter=orthogonalPerimeter;outlineConnect=0;targetShapes=umlLifeline;portConstraint=eastwest;newEdgeStyle={&quot;edgeStyle&quot;:&quot;elbowEdgeStyle&quot;,&quot;elbow&quot;:&quot;vertical&quot;,&quot;curved&quot;:0,&quot;rounded&quot;:0};" parent="aM9ryv3xv72pqoxQDRHE-1" vertex="1">
          <mxGeometry x="65" y="70" width="10" height="190" as="geometry" />
        </mxCell>
        <mxCell id="aM9ryv3xv72pqoxQDRHE-5" value="Mister ED System" style="shape=umlLifeline;perimeter=lifelinePerimeter;whiteSpace=wrap;html=1;container=0;dropTarget=0;collapsible=0;recursiveResize=0;outlineConnect=0;portConstraint=eastwest;newEdgeStyle={&quot;edgeStyle&quot;:&quot;elbowEdgeStyle&quot;,&quot;elbow&quot;:&quot;vertical&quot;,&quot;curved&quot;:0,&quot;rounded&quot;:0};" parent="1" vertex="1">
          <mxGeometry x="220" y="40" width="100" height="300" as="geometry" />
        </mxCell>
        <mxCell id="aM9ryv3xv72pqoxQDRHE-6" value="" style="html=1;points=[];perimeter=orthogonalPerimeter;outlineConnect=0;targetShapes=umlLifeline;portConstraint=eastwest;newEdgeStyle={&quot;edgeStyle&quot;:&quot;elbowEdgeStyle&quot;,&quot;elbow&quot;:&quot;vertical&quot;,&quot;curved&quot;:0,&quot;rounded&quot;:0};" parent="aM9ryv3xv72pqoxQDRHE-5" vertex="1">
          <mxGeometry x="45" y="80" width="10" height="170" as="geometry" />
        </mxCell>
        <mxCell id="aM9ryv3xv72pqoxQDRHE-7" value="loginRequest" style="html=1;verticalAlign=bottom;endArrow=block;edgeStyle=elbowEdgeStyle;elbow=vertical;curved=0;rounded=0;" parent="1" source="aM9ryv3xv72pqoxQDRHE-2" target="aM9ryv3xv72pqoxQDRHE-6" edge="1">
          <mxGeometry relative="1" as="geometry">
            <mxPoint x="195" y="130" as="sourcePoint" />
            <Array as="points">
              <mxPoint x="180" y="120" />
            </Array>
          </mxGeometry>
        </mxCell>
        <mxCell id="aM9ryv3xv72pqoxQDRHE-8" value="return" style="html=1;verticalAlign=bottom;endArrow=open;dashed=1;endSize=8;edgeStyle=elbowEdgeStyle;elbow=vertical;curved=0;rounded=0;" parent="1" source="aM9ryv3xv72pqoxQDRHE-6" target="aM9ryv3xv72pqoxQDRHE-2" edge="1">
          <mxGeometry relative="1" as="geometry">
            <mxPoint x="195" y="205" as="targetPoint" />
            <Array as="points">
              <mxPoint x="190" y="280" />
            </Array>
          </mxGeometry>
        </mxCell>
        <mxCell id="aM9ryv3xv72pqoxQDRHE-9" value="returnHomepage" style="html=1;verticalAlign=bottom;endArrow=block;edgeStyle=elbowEdgeStyle;elbow=vertical;curved=0;rounded=0;" parent="1" target="aM9ryv3xv72pqoxQDRHE-1" edge="1">
          <mxGeometry relative="1" as="geometry">
            <mxPoint x="265" y="143" as="sourcePoint" />
            <Array as="points">
              <mxPoint x="190" y="143" />
            </Array>
            <mxPoint x="95" y="143" as="targetPoint" />
          </mxGeometry>
        </mxCell>
        <mxCell id="aM9ryv3xv72pqoxQDRHE-10" value="return" style="html=1;verticalAlign=bottom;endArrow=open;dashed=1;endSize=8;edgeStyle=elbowEdgeStyle;elbow=vertical;curved=0;rounded=0;" parent="1" target="aM9ryv3xv72pqoxQDRHE-6" edge="1">
          <mxGeometry relative="1" as="geometry">
            <mxPoint x="175" y="235" as="targetPoint" />
            <Array as="points">
              <mxPoint x="180" y="230" />
            </Array>
            <mxPoint x="100" y="230" as="sourcePoint" />
          </mxGeometry>
        </mxCell>
        <mxCell id="zb4zIpcoGcX_HHcXuBXP-1" value="" style="shape=image;verticalLabelPosition=bottom;labelBackgroundColor=default;verticalAlign=top;aspect=fixed;imageAspect=0;image=data:image/png,iVBORw0KGgoAAAANSUhEUgAAAogAAALkCAYAAACMf8SbAAAgAElEQVR4XuydCbyN1f7/v6YyhITMXTMZMiVTOnRJKRc3VJqLUrcBlUqFvyZNpgYVzZOQlFIkc4Yr3cKVIWUmpFKGIv591q917nO2vfd59t7PsJ7n+azXa7/2Puc8z1rf9f4+nM/5rvX9rjzbdv54VNhIgARIgARIgARIgARI4C8Cedpf0I0CkY8DCZAACZAACZAACZBANoE8R/9s5EECJEACJEACJEACJEACmgAFIp8FEiABEiABEiABEiCBHAQoEPlAkEDACAwaNEjmzZsXMKtpLgmQAAmQgNMEGjZsKCNHjnS6W9UfBaIrWNkpCbhH4J///Kds27ZNzj33XPcGYc8kQAIkQAJGE5g7d65gl+CcOXNcsZMC0RWs7JQE3CMAgVipUiUZNWqUe4OwZxIgARIgAaMJ/L//9/9k9uzZFIhGe4nGkYCHBCgQPYTNoUiABEjAUAIUiIY6hmaRgF8EKBD9Is9xSYAESMAcAhSI5viClpCAEQQoEI1wA40gARIgAV8JUCD6ip+Dk4B5BCgQzfMJLSIBEiABrwlQIHpNnOORgOEEKBANdxDNIwESIAEPCFAgegCZQ5BAkAhQIAbJW7SVBEiABNwhQIHoDlf2SgKBJUCBGFjX0XASIAEScIwABaJjKNkRCYSDAAViOPwY5FnUr19fVq5cqabQpUsXeffdd7OnM2nSJOnevXv211u2bFGfK1asqN5R2NeElidPnqRmwG5tc+yF9erVkxUrVpgwDdoQYQIUiBF2PqdOAvEIUCDyufCbgFUgxoq+rl27ypQpUxwRiOjr0ksvlW7dujk+5UwEojYGIrJChQqO28YOScAOAQpEO5R4DQlEiAAFYoScbehUYwXi4sWLpVmzZsraWOGVrojSQnPixImuCsRk9um5xF6j5x8bPTXUXTQrpAQoEEPqWE6LBNIlQIGYLjne5xQBLZD69u0rI0eOlOHDh0u/fv1kyZIl0rx5c7XsrKOI8ZaYY5ehYZdVhMVGIa1LuhgHY+oWKyC1qNO24TqrgNX3JRJ/VkaJrtm6datxS+ZO+Zb9BIcABWJwfEVLScATAhSInmDmIEkIaIEIcYb9hlrAjRgxQvr3768EI9618MO73s+XaG+fVQQmEoix4lCbqAUqvo6NYCbaL5hsiRniEnNJJiI1g3jikw8PCXhBgALRC8ocgwQCRIACMUDOCqmpWhxZxR4+33TTTSpyCNGESGI8gahFZW7Ls7FLzDpqFyv4tIjTyS/6a6tojOeGTAWito8CMaQPeQCmRYEYACfRRBLwkgAFope0OVY8AlaBqEWhjhpCwH388cc5IobWCCKEXKw4iycWYwVivGVpq21aqOm+cxNumSwxY1xGEPlvw28CFIh+e4Djk4BhBCgQDXNIBM2xCsQJEyZkLycDBZZnb7/99qQCUSNLltCSqUDMLTkmU4EYG7mM4GPAKftMgALRZwdweBIwjQAFomkeiZ49VoEIIaaXk0ECS8gtWrSwJRA1uXgZy3aXmGPp2xF+uMfOdYmu0bbltkwevSeDM/aSAAWil7Q5FgkEgAAFYgCcFHITrQIRdQCtkcDYrOXYr/UexHiIEmUy632Hsckrug/rvkQ7ws8qEBO5yrqPMtE1uUUpQ/4YcHo+E6BA9NkBHJ4ETCNAgWiaR6JnT6xA1NnFWqhZy8CkU+YGRHXJHHxOVuYmNornhUDkSSrRe+ZNnDEFooleoU0k4CMBCkQf4XNoEiABEjCEAAWiIY6gGSRgCgEKRFM8QTtIgARIwD8CFIj+sefIJGAkAQpEI91Co0iABEjAUwIUiJ7i5mAkYD4BCkTzfUQLSYAESMBtAhSIbhNm/yQQMAIUiAFzGM0lARIgARcIUCC6AJVdkkCQCVAgBtl7tJ0ESIAEnCFAgegMR/ZCAqEhQIEYGldyIiRAAiSQNgEKxLTR8UYSCCcBCsRw+pWzIgESIIFUCFAgpkKL15JABAjceOONMmbMmAjMlFMkARIgARJIRuCiiy6S8ePHuwIpz9E/mys9s1MSIAFXCCCCmDdvXrnppptc6Z+dkgAJkAAJmE/glVdekfXr18u8efNcMZYC0RWs7JQE3CPAJWb32LJnEiABEggKAS4xB8VTtJMEPCJAgegRaA5DAiRAAgYToEA02Dk0jQT8IECB6Ad1jkkCJEACZhGgQDTLH7SGBHwnQIHouwtoAAmQAAn4ToAC0XcX0AASMIsABaJZ/qA1JEACJOAHAQpEP6hzTBIwmAAFosHOoWkkQAIk4BEBCkSPQHMYEggKAQrEoHiKdpIACZCAewQoEN1jy55JIJAEKBAD6TYaTQIkQAKOEqBAdBQnOyOB4BOgQAy+DzkDEiABEsiUAAVipgR5PwmEjAAFYsgcyumQAAmQQBoEKBDTgMZbSCDMBCgQw+xdzo0ESIAE7BGgQLTHiVeRQGQIUCBGxtWcKAmQAAkkJECByIeDBEggBwEKRD4QJEACJEACFIh8BkiABCgQ+QyQAAmQAAnkIECByAeCBEiAApHPAAmQAAmQAAUinwESIIHEBLjEzKeDBEiABEiAEUQ+AyRAAowg8hkgARIgARJgBJHPAAmQACOIfAZIgARIgAQSE2AEkU8HCZAAI4h8BkiABEiABBhB5DNAAiTACCKfARIgARIgAUYQ+QyQAAnYJMAkFZugeBkJkAAJhJgAl5hD7FxOjQTSIUCBmA413kMCJEAC4SJAgRguf3I2JJAxAQrEjBGyAxIgARIIPAEKxMC7kBMgAWcJUCA6y5O9kQAJkEAQCVAgBtFrtJkEXCRAgegiXHZNAiRAAgEhQIEYEEfRTBLwigAFolekOQ4JkAAJmEuAAtFc39AyEvCFAAWiL9g5KAmQAAkYRYAC0Sh30BgS8J8ABaL/PqAFJEACJOA3AQpEvz3A8UnAMAIUiIY5hOaQAAmQgA8EKBB9gM4hScBkAhSIJnuHtpEACZCANwQoEL3hzFFIIDAEKBAD4yoaSgIkQAKuEaBAdA0tOyaBYBKgQAym32g1CZAACThJgALRSZrsiwRCQIACMQRO5BRIgARIIEMCFIgZAuTtJBA2AhSIYfMo50MCJEACqROgQEydGe8ggVAToEAMtXs5ORIgARKwRYAC0RYmXkQC0SFAgRgdX3OmJEACJJCIAAUinw0SIIEcBCgQ+UCQAAmQAAlQIPIZIAESoEDkM0ACJEACJJCDAAUiHwgSIAEKRD4DJEACJEACFIh8BkiABBIT4BIznw4SIAESIAFGEPkMkAAJMILIZ4AESIAESIARRD4DJEACjCDyGSABEiABEkhMgBFEPh0kQAKMIPIZIAESIAESYASRzwAJkAAjiHwGSIAESIAEGEHkM0ACJGCTAJNUbILiZSRAAiQQYgJcYg6xczk1EkiHAAViOtR4DwmQAAmEiwAFYrj8ydmQQMYEKBAzRsgOSIAESCDwBCgQA+9CToAEnCVAgegsT/ZGAiRAAkEkQIEYRK/RZhJwkQAFootw2TUJkAAJBIQABWJAHEUzScArAhSIXpHmOCRAAiRgLgEKRHN9Q8tIwBcCFIi+YOegJEACJGAUAQpEo9xBY0jAfwIUiP77gBaQAAmQgN8EKBD99gDHJwHDCFAgGuYQmkMCJEACPhCgQPQBOockAZMJUCCa7B3aRgIkQALeEKBA9IYzRyGBwBCgQAyMq2goCZAACbhGgALRNbTsmASCSYACMZh+o9UkQAIk4CQBCkQnabIvEggBAQrEEDgxwyls3LhRtm/fLr/++qscPnxYDh06pF65fdY/z58/v+BVoEAB9bLzuXDhwlK2bFkpX768FCxYMMMZ8HYSIIFMCVAgZkqQ95NAyAhQIIbMoX9N58CBA7Jt2zYl/PQ7PuuX/t6ePXuOAVCkSBFbIk8LQruCEtft27fvmPGKFy8u5cqVU2JRi0Z8Hfu9okWLhtNZnBUJGECAAtEAJ9AEEjCJAAWiSd6wb8vvv/8uGzZskO+++y77HZ/16+eff5aSJUtKqVKlpHTp0uo99rP165NPPlmOO+44+wZkeCWij7t27VKv3bt3Z7+sX8f+rFChQlKlShX1qly5cvZn/T38nI0ESCA9AhSI6XHjXSQQWgIUiGa7Fsu+CxculMWLF8u6deuyBSAigGinnHKK1KpVS+rWrStVq1ZVn/H629/+ZvbE0rAOc16zZo2sXbtWvvnmG1m1alX2Z3QHkavFYvXq1aVp06bSunVrKVGiRBqj8RYSiBYBCsRo+ZuzJYFcCVAg5orI0wt27twp8+fPl7lz5yphuGzZMjV+kyZNpE6dOlKzZk0lACGAGjVq5KltJg/29ddfy/r165VohIhcvXq14odWr149adGihbRp00a9Q0SykQAJ5CRAgcgnggRIIAcBCkR/HwiImQULFihRiHeIHCyVNmvWTM4880wVAWvZsqWccMIJ/hoawNF/++03+fe//63Y4gXBuHfvXqlQoYLiqvlCQObNmzeAM6TJJOAcAQpE51iyJxIIBQEKRG/diL13s2fPlvfee0+9tmzZIieddJK0atUqW7ScfvrpKhuYzVkCR44ckeXLl2cLRghyJO1gr+YFF1wgXbp0kQ4dOiiBzkYCUSNAgRg1j3O+JJALAQpEbx6Rd999V9555x15//33BUIlKytL/v73v0u7du3ktNNO88YIjnIMASxFz5kzR2bNmiWffvqpIKv7/PPPl+7du0u3bt0EGd1sJBAFAhSIUfAy50gCKRCgQEwBVoqXzps3T8aPHy9vvPGGWiK+4oor5Nxzz1XikM1MAkuXLpXp06fLa6+9Jps2bZILL7xQevbsKR07djTTYFpFAg4RoEB0CCS7IYGwEKBAdNaT2OP24osvyjPPPKOWj7FsefXVV6toIfe5Ocva7d6WLFkiL730khL5iCRef/310qdPH5UtzUYCYSNAgRg2j3I+JJAhAQrEDAH+dTtq9t1///0yduxYVVbllltuUYKCJVac4etnLyg6DqE4fPhwlUR06aWXygMPPKBqMbKRQFgIUCCGxZOcBwk4RIACMXOQTz/9tNx9992qIPWQIUPk8ssvz7xT9mAkASQW4Q8BlB+699571Wc2EggDAQrEMHiRcyABBwlQIKYPE3vUkMiA00sgFLD8yBYNAm+//bYMHDhQ8uTJIxMnTmRNymi4PdSzpEAMtXs5ORJInQAFYurMcMfMmTOVOEQBa2Qnn3jiiel1xLsCSwDHHV5zzTUyadIkte8UySxsJBBUAhSIQfUc7SYBlwhQIKYOFuVQUJ7m5ptvltGjR6fegYt3dO3aVaZMmRJ3BOyh69evn2Ojb926VSpWrKiOAURh71QaRBUEdhjaE088IbfffruMGzdOrr322jBMiXOIIAEKxAg6nVMmgWQEKBBTez42b94s9evXV0Jr8ODBqd3swdUQiGedddYxQhAZuc2bN1fLoX4LM/BD5M1JseoB2qRDvPrqq9K7d291RCI4s5FA0AhQIAbNY7SXBFwmQIGYGuC2bdtKjRo15Pnnn0/tRo+uTiQQMTwE2YYNGwRFu/1sYRSI4PnII4+oKOK6dev8xMuxSSAtAhSIaWHjTSQQXgIUiPZ9O2PGDOncubNKSilbtqz9Gz28MlWBCLG2cuVKZSHOJF6xYsUx1iIRQzcsU/fv31+OHj0q8ZaYdaTS2gmu1c06HmpEarGazA6M37dvXxk5cqTqBvUlcZ6yae3gwYNStWpVld184403mmYe7SGBpAQoEPmAkAAJ5CBAgWj/gbjzzjvlP//5j0AomtpSWWKGKMNeyhEjRqjp4B3JFlaRGBvt02IxnkCMJxjjRS1j+8zNDoyZSLya5ocbbrhBUBMTeyzZSCBIBCgQg+Qt2koCHhCgQLQPGceulStXTp566in7N3l8ZbIkFev+Qx3ps0b3YKou24J9ihA5OJPYeo31e7GCUPeZW9KKVSDasQM2OZ1g45ZbILJfeeUV+fLLL90agv2SgCsEKBBdwcpOSSC4BCgQ7fuuR48eUrJkSRkzZoz9mzy+MjaCqAVYrMCCkMFScbymr8U1OE/aumfRKugSRQz1UjD6jhWg+J5VINqxwypaPcaZ8nAUiCkj4w2GEKBANMQRNIMETCFAgWjfE8haRombBQsW2L/J4yvjLTHrqJ81ghhvOTnW1HQEou5Di0f9dew+RJ3FbMeOIAnEq666Sg4dOiRvvPGGx57ncCSQGQEKxMz48W4SCB0BCkT7Lv3vf/+r9sJh+bBBgwb2b/TwykR7EPXSsxZqOhKYLOEj1SXmRNOMFXjxlpiT2REUgfj999+r85lff/11wXYENhIIEgEKxCB5i7aSgAcEKBBTg9ypUyf56aefZP78+and6NHViQSijughG1gnpUCoVa9ePXsJOd4ewlSSVOLdH0+IxktSSWZHUAQizuDGGc2rVq3yyNschgScI0CB6BxL9kQCoSBAgZiaG7dt2yZNmzaVDh06qIxf01qyMjd6v591P6K1vAzmEi/BJJUyNzrqaOUSGx3Udlgzk5PZEQSB+PDDDwte+MPB1Oiyac8q7TGLAAWiWf6gNSTgOwEKxNRdsHr1anVaCZYRIXYKFiyYeicBvQMCEL9I4tVLDOiUMjZ7yJAh8thjj8lHH32kngs2EggiAQrEIHqNNpOAiwQoENODi0giimb//PPP8tprr6V8FnF6o3p7l44GWiOAsTULvbXIrNFwYsqll14qP/74ozr/um7dumYZSGtIIAUCFIgpwOKlJBAFAhSImXn5tttuUzX6Lr74YrXEiCSFMDUUuraWrbHuYQzTPFOZCwphDxo0SJ599lm54oorVF3MokWLptIFryUB4whQIBrnEhpEAv4SoEDMnD+Oqrv++utl4cKF0qtXL7n99tulVq1amXfMHowigEgqthRAGFasWFGdx52VlWWUjTSGBNIlQIGYLjneRwIhJUCB6JxjJ0yYoCJLa9asUUksKER9zjnnODcAe/KFAIQ/oqioI4kzoO+55x7BkXpsJBAmAhSIYfIm50ICDhCgQHQAoqWLI0eOqCPq7r//fkFksVKlSmoZEgWUUcqFLRgEUBYIe0tffvllJfhPOeUUueuuu1SEuECBAsGYBK0kgRQIUCCmAIuXkkAUCFAguudlHFM3fvx4darG3r17pXnz5nLeeedJ+/btpUWLFu4NzJ7TIoAC6DNnzlTZyLNmzVLZ6chURyIK/MZGAmEmQIEYZu9ybiSQBgEKxDSgpXELzjOeOnWqzJgxQxCdKl68uJx99tnStm1badmypTRp0iSNXnlLJgRwMg6Wj+fMmaOE4c6dO6VUqVLKJ+eff75069ZNihQpkskQvJcEAkOAAjEwrqKhJOANAQpEbzhbR1m7dq2KUM2ePVvmzp0rOKIN0SpEGCEWW7VqpSKMJUqU8N64kI64f/9+VQT8s88+k0WLFql3RHVPPPFEad26tRKFEOwsch3SB4DTypUABWKuiHgBCUSLAAWi//7euHGjimRBtOB9+fLlgr2MtWvXVmIRohEvZkbb99WGDRsUS/2yMtU88Q7GbCRAAqIK4OOPVkTU3Wh5/jwI/qgbHbNPEiABdwhQILrDNZNedbRLixtEvlCMGcudVatWlWrVqh3zjvqLUUqe+OOPP2TTpk3y7bffyvr16495RwFz8DrjjDOyBTajspk8lbw37AQoEMPuYc6PBFIkQIGYIjCfLkeU8euvv1avVatWZb9DOOqGTFstICEYsZ8Or9KlS2d/LlOmjE8zsD/s7t27BS8UpNaf8Q5BCDGoBaHu8YQTTpBTTz1VverUqZP9uUaNGvYH5ZUkEHECFIgRfwA4fRKIJUCBGOxnAvsXtWBEORaU1oGI3L59e8KJYW9jrHiEcETErVChQlK4cOG47/hZ7M9x7YEDBwRRT7wn+hz7c3yNpBCrCMTnH374IandOOoPy8JWQYhSQmwkQAKZEaBAzIwf7yaB0BGgQAydS9WEDh06pARYomhcvO///vvvnsHInz9/tkjVYtX6bo166u9DjLKRAAm4Q4AC0R2u7JUEAkuAAjGwrnPF8IMHDypxidfhw4dz/XzrrbeqM6iLFSum9kDiBfGX7DOikGwkQAJmEaBANMsftIYEfCdAgei7CwJrwAcffCCdOnWSwYMHy5AhQwI7DxpOAiTALGY+AyRAAjEEKBD5SKRLoG7dumr/I5Z+d+zYIUWLFk23K95HAiTgMwFGEH12AIcnAdMIUCCa5pFg2INTYf7xj38oY/PmzasiiPfdd18wjKeVJEACxxCgQORDQQIkkIMABSIfiHQIoJwMsqV1QwY0oogoOcNGAiQQPAIUiMHzGS0mAVcJUCC6ijeUnb///vvSuXPnHHNDFBG/YO69995QzpmTIoGwE6BADLuHOT8SSJEABWKKwHi5KkZtjR4yisiHggSCT4ACMfg+5AxIwFECFIiO4gx9Z9a9h5gsIoc4NxotX758cv/998vdd98deg6cIAmEjQAFYtg8yvmQQIYEKBAzBBix23XmMmodovbhnj17pEKFCurkFghFZDJv27aNexEj9lxwusEnQIEYfB9yBiTgKAEKREdxhrqzKVOmSNeuXQXH8g0dOlS6desmJUuWlM8//1zWrVsngwYNUu+PPPKIDBgwINQsODkSCBsBCsSweZTzIYEMCVAgZgiQt5MACZBACAhQIIbAiZwCCThJgALRSZrsiwRIgASCSYACMZh+o9Uk4BoBCkTX0LJjEiABEggMAQrEwLiKhpKANwQoEL3hbMIoW7dulYoVK8qWLVtUYkm6TfezePFiadasWUrdLFmyRJo3by5Hjx5N6T5eTAIk4C4BCkR3+bJ3EggcAQrEwLksbYMpENNGxxtJIPQEKBBD72JOkARSI0CBmBqvIF8dKxDz5Mkjw4cPl/79+2dPyxpdrF+/vqxcuVL9rEuXLvLuu++qz9YIIqKB1khivAghxtFNj6cjiNYx6tWrJytWrMi+dsSIETlsSydiGWR/0XYS8JIABaKXtDkWCQSAAAViAJzkkInxBKJVlPXr109mzpypRBqEW7t27QQiDQ1fX3PNNYJrUhGI1vvQjxaLEIixY2CsF198UY0fKzQnTZok3bt359K0Q88CuyGBWAIUiHwmSIAEchCgQIzOAxFPIE6cOFHVM0TTogyRunj7BHE/9i7aFYjxoola6GGMXr165YgYaiE6btw42bx5MwVhdB5NztQAAhSIBjiBJpCASQQoEE3yhru2xBOI8ZaHIRrxy8K63Gu1zK5ARERw3rx52UvTVhEau7Rt7V+LVuvys1XIukuJvZNANAlQIEbT75w1CSQkQIEYnYfDNIGol5Nz8wCWtUeOHKkuyzQDO7ex+HMSiCoBCsSoep7zJoEEBCgQo/No2BWIiZaYNanYCKI1umfdK5jbEjOWsVMRfIgoDh48OHtJPDqe40xJwH0CFIjuM+YIJBAoAhSIgXJXRsbaFYg6gUQnpWBQRPE2bNigloutAnHYsGFSuXLlHMksyHy2Zilbk11ik1SqV6+evQRt3QO5cOFClcGs+8mk9mJG0HgzCUSEAAViRBzNaZKAXQIUiHZJBf+6VAQiZmunzA0Kb+OlG6KJsdnG1n6SlblBH9Y9kdalZfyM+xCD/wxyBuYSoEA01ze0jAR8IUCB6At2DkoCJEACRhGgQDTKHTSGBPwnQIHovw9oAQmQAAn4TYAC0W8PcHwSMIwABaJhDqE5JEACJOADAQpEH6BzSBIwmQAFosneoW0kQAIk4A0BCkRvOHMUEggMAQrEwLjKOEN//fVXKVq0qCxbtkwaN25snH00iARIwD4BCkT7rHglCUSCAAViJNzsyiQpEF3Byk5JwBcCFIi+YOegJGAuAQpEc31jumUUiKZ7iPaRgH0CFIj2WfFKEogEAQrESLjZlUlSILqClZ2SgC8EKBB9wc5BScBcAhSI5vrGdMsoEE33EO0jAfsEKBDts+KVJBAJAhSIkXCzK5OkQHQFKzslAV8IUCD6gp2DkoC5BCgQzfWN6ZZRIJruIdpHAvYJUCDaZ8UrSSASBCgQI+FmVyZJgegKVnZKAr4QoED0BTsHJQFzCVAgmusb0y2jQDTdQ7SPBOwToEC0z4pXkkAkCFAgRsLNrkySAtEVrOyUBHwhQIHoC3YOSgLmEqBANNc3pltGgWi6h2gfCdgnQIFonxWvJIFIEKBAjISbXZkkBaIrWNkpCfhCgALRF+wclATMJUCBaK5vTLeMAtF0D9E+ErBPgALRPiteSQKRIECBGAk3uzJJCkRXsLJTEvCFAAWiL9g5KAmYS4AC0VzfmG4ZBaLpHqJ9JGCfAAWifVa8kgQiQYACMRJudmWSFIiuYGWnJOALAQpEX7BzUBIwlwAForm+Md0yCkTTPUT7SMA+AQpE+6x4JQlEggAFYiTc7MokKRBdwcpOScAXAhSIvmDnoCRgLgEKRHN9Y7plFIime4j2kYB9AhSI9lnxShKIBAEKxEi42ZVJUiC6gpWdkoAvBCgQfcHOQUnAXAIUiOb6xnTLKBBN9xDtIwH7BCgQ7bPilSQQCQIUiJFwsyuTpEB0BSs7JQFfCFAg+oKdg5KAuQQoEM31jemWUSCa7iHaRwL2CVAg2mfFK0kgEgQoECPhZlcmSYHoClZ2SgK+EKBA9AU7ByUBcwlQIJrrG9Mto0A03UO0jwTsE6BAtM+KV5JAJAhQIEbCza5MkgLRFazslAR8IUCB6At2DkoC5hKgQDTXN6ZbRoFouodoHwnYJ0CBaJ8VrySBSBCgQIyEm7Mn+d1338n27dtl27Zt6v3777+XrVu3qs8QfIcPH5ZDhw6pV26fDx48mAPeCSecIAUKFJD8+fOr92SfCxcuLGXLlpXy5cur93LlyqkXvq5QoYIUKlQoWo7hbEnAZwIUiD47gMOTgGkEKBBN80h69hw4cEAg/vRr8+bN2SJQi8GffvpJdV6iRAkpVaqUepUuXVq9lylTRud8G2IAACAASURBVAoWLJirsLOKPy0C7QpKq+j87bffZOfOnbJr1y7ZvXt3jhdsLFq0aLZg1EKyUqVKUqVKFfWqWrWqQJCykQAJOEOAAtEZjuyFBEJDgAIxOK5cv359tgDcuHGjfPvtt9lfIxJ40kknSa1atdSrWrVqx4hALQRNn7EWjLHiEeJ3zZo1snbtWtmxY4ear1UwVq5cOftrMGAjARKwT4AC0T4rXkkCkSBAgWimm3/88UdZsGBB9uvzzz+X33//XY4//nipXr26EoE1a9bMFoR16tSR4sWLmzkZF6zat2+ffP3110osQjTq17p16wQ/y5cvnzRo0EDOPPNMad26tZx11lly8sknu2AJuySBcBCgQAyHHzkLEnCMAAWiYygz6gjRMQjCRYsWyfz582XlypWqv+bNm2cLHIhALK2yJSeA5fXVq1crnvPmzZMlS5YIluBr1KghLVq0yBaNtWvXJkoSIIG/CFAg8lEgARLIQYAC0Z8HAsuo77zzjsyePVsJGSSKYE8dBAyiXYh8tWnTxh/jQjjq4sWLFWeIb7zv2bNHSpYsqThnZWVJt27dBHsc2UggqgQoEKPqec6bBBIQoED07tH45ptvZPLkyfL+++/LZ599ppaE27Vrlx3RatKkiXfGRHykFStWyMKFC5VgnDlzpsrmbtSokXTq1Em9Tj/99IgT4vSjRoACMWoe53xJIBcCFIjuPiJIpnj99dfVC3vmWrVqJe3bt1evxo0bS968ed01gL3bIoAl6RkzZqjXnDlzVOmdyy67TL2w55ONBMJOgAIx7B7m/EggRQIUiCkCs3n5K6+8InhhCRnLxldeeaX07NlTlW9hM5/AW2+9JS+//LISjE2bNlX+u+qqq6RIkSLmG08LSSANAhSIaUDjLSQQZgIUiM55F9HCJ598Up577jn5448/pHfv3nLdddcxAuUcYs97wt5QCP2nnnpKfvnlF7nmmmvkpptuUgkvbCQQJgIUiGHyJudCAg4QoEDMHCJOFBk6dKg88cQTglp8t956q1x99dU8DSRztMb0gFNlJk6cKMOHD5dly5ZJr1695OGHH1aJLmwkEAYCFIhh8CLnQAIOEqBAzAzmhx9+KDfeeKMcPXpUCYZLL700sw55t/EEpk2bJnfccYcq1v3444+rPwbYSCDoBCgQg+5B2k8CDhOgQEwfaL9+/WTkyJHywAMPyD333JN+R7wzkAReeOEFufnmm+WCCy6Ql156ifsTA+lFGq0JUCDyWSABEshBgAIx9QcCRZc7dOggy5cvl3fffVfatm2beicp3DFixAjp37+/Wt6EKE2nTZo0SdX6y5Mnj6AmYLNmzdLpJuV7MC6SdCpWrOj4uHpOKRvl4A0ol9OxY0cpVqyYSkjiaS0OwmVXnhKgQPQUNwcjAfMJUCCm7qMePXrIp59+qgSPF8kK9evXV4kuqKMIQZJqw/1IroC49FIgWsdN1ebcrnez79zGjv05ip6j4DbOhkZtRTYSCCIBCsQgeo02k4CLBCgQU4M7evRolYSydOlST4op45g4HLcHMarfU43+USCm5uN0rt64caOcccYZcvHFF8uoUaPS6YL3kICvBCgQfcXPwUnAPAIUiPZ98uOPP6osZSSjIDHFi4ao34YNG9RSdteuXdX4WHLWLTYiqAUlkmbQIA71uc5dunSRKVOmqKVqLFnrtmXLFqlQoUKO6Vjvq1ev3jGRS4yLrN7u3bvH7cd6P5bjp0+ffswSs97DqTuwLqHreViNwnhYJo+dE9jEzjWezW77C0vMOBkHBdFr1qzp9nDsnwQcJUCB6ChOdkYCwSdAgWjfhyhj8/zzz8uaNWvs35ThlVqIQRhBGL744os5xFpuAlELJ+sSM76nBSREGo6asy5dQ4BB6GghmmhcqwhL1A/GxZJ87B7EeNdjLhCJ+notCGGvFpNW4avnpOeYm80ZusLW7eeee65UrVpVnnnmGVvX8yISMIUABaIpnqAdJGAIAQpE+45A4etff/1VcMqGF01H0XSED0WbY4VWOgLRKrxiI46xX+t5WoUqvhf7dbz79NJ2rECMN4/ceCIhBdHKeALRrs25jeHEz++99161D3HWrFlOdMc+SMAzAhSInqHmQCQQDAIUiPb8hELJSERo3bq1PPbYY/ZuyvAq6/Ky7io2upeOQLRmMceKK50xHc906xJwKuPGCsREgi7emBjH2uIJRLs2Z+gOW7cjwoxIs5dRZluG8SISyIUABSIfERIggRwEKBCTPxAohoxf+kg8KFeunNSqVUveeecdT56iWHGkB7Uu7aYi1OJlMccTiLHL2ImEWzKhiXsSRRDtCEQ9dy1K4+2t1EvM8ZbAPXFQnEHuuusuddLKJ5984pcJHJcE0iJAgZgWNt5EAuElQIEY37efffaZ2g+HpI78+fPL77//LldeeaV89NFHgozVggULuvpQ6CXV2AQSa1Yzspljl3pjl2KtQs2OQIxd1k40yVSEaapLzJgDfllZ90XaWWKOl2zjqpPidN6oUSPJyspSBdTZSCBIBCgQg+Qt2koCHhCgQPwfZJyp/Oabb6olZCwR5s2bV/7444/sC1DaBr/8Bw8eLAMGDHDVO/GWl/WA1mXm2CVnneGrl2JTFYj6etRd1NnBsaIU12QiEHF/vCQVZGmj4bhC7DeM3XuJn+nvxdZB1LUik9nsqsP+7ByRZdj95Zdfymmnneb2cOyfBBwlQIHoKE52RgLBJ0CBKKqMDPaNYWkVIvHIkSPHOLZ06dKyc+dOefrpp+X222+XBQsWSJMmTVx5AHQSR6KTU6wZvfpabYguPWMViHqPHpamUfImt6VhLRJ1eRx8HXv6ih2BqMfFsjwEd2wfsWVu+vbtm505HfszCEMk6OgEG+ucdKTRWv4mns2uOOuvTvEMIaJ72WWXqWeJjQSCRoACMWgeo70k4DKBqAvEjz/+WO688051bB7acccdp5aTYxsKIOvs5TvuuENeeeUVla2KSBtbtAngDwckMDVo0EAJWDYSCCIBCsQgeo02k4CLBKIuEDXan3/+WbDvcNGiRWrf4X//+9/skirHH3+82lPWp0+fbE/cc8898uSTT6qI17XXXuuih9i1yQQ+/PBDufrqq9V5zC+//LLJptI2EkhKgAKRDwgJkEAOAhSIOR+IXbt2qaVjlLXBGbuHDh1SF2AZE0u01vbBBx/IJZdcokrfYFnx1FNP5dMVEQKbN28W1Dx89dVXZcyYMTn+eIgIAk4zZAQoEEPmUE6HBDIlQIH4P4IHDhyQ9u3by6ZNm2TatGnSuHFjJRALFSok+/fvj4saewCxdw5ZtldccYXcf//9csopp2TqFt5vKAH80TBs2DD1B0GbNm2UOKxdu7ah1tIsErBPgALRPiteSQKRIECB+D83oxwLooLYW9iwYUNBnb2XXnpJicYZM2YkfR5wXN3NN98sq1evVpmsSGQ544wzIvEMRWGSOF/58ccfV4lMOLcame6IHrORQFgIUCCGxZOcBwk4RIAC8f9AIiqEfYXjx49XAg8NiStIPHj44YcFBZDtNJTJwX+0a9eulRYtWqjaiT179pSiRYvauZ3XGEbg9ddfV8vIKHxdtmxZGTRokNxwww2GWUlzSCBzAhSImTNkDyQQKgIUiKIyT5Gl/OCDDx4jBM866yz1fewzTKVBKI4bN05mz56timpfeOGFcvnll0uHDh1S6YbX+kBg/vz5AmGIPxb27t2rIsGIJl9//fU+WMMhScAbAhSI3nDmKCQQGAJRF4goatyyZUu54IILZMKECcf4DYWXO3XqpE5TSafhqD6IDby++uortZ8RovOcc85RS9eo3cfmL4FvvvlGbSFAlBCCHhntVatWVTUNIepZyshf/3B0bwhQIHrDmaOQQGAIRFkgIhO1VatWKqkE4gDizc2G5BfsVZw1a5Z6bd++XUqWLKkEqn4hWuX2MX5uztH0vpGd/sUXX6h9pvqFRKMSJUqopJOzzz5bverUqWP6VGgfCThKgALRUZzsjASCTyCqAhEZyxBlP/zwgyxbtkxwUorXDbUWsZyJE0YgVtatW6dMaNq0qbINexixtF2+fHmvTQvNePAvTr0BY9S5BG80nMqiRTmKXLt1Kk5oQHIioSdAgRh6F3OCJJAagagKRGQsT58+XebOnasylk1oEDMQMTqy9fnnnwuELKKMOK6uZs2aOd5r1KihTn6JekNU8Ntvv1XH+SE5CC/9GVHaAgUKKB9bBSFFd9SfGs4/lgAFIp8JEiCBHASiKBCHDBmi6hWi1qHJSSOJlkO1A/PmzauWx+OJx0qVKgnOSw5Tg9izij8tAiEOwUq3UqVKqegrl+3D5H3OxW0CFIhuE2b/JBAwAlETiMhYRvQQR+ShwHXQGqKMOkqm37E0jZe1mDciiyjLUq5cObVEbX23fsbSut9CEnOC+Nu2bZt6T/T54MGD2e7C/KpVq6aiqvqFiCo+Y35sJEACqRGgQEyNF68mgdATiJJAxPItModx4smzzz4bOt8i6QZCEZG1LVu2yPfff6+OC8QLRwjifc+ePcfMG4Wf8SpSpIhajsULWdt2PkOo4bQZvBDFs/sZYhaCEIk7se3EE08URAFjXxC6devWVVnFyDJmIwEScI4ABaJzLNkTCYSCQFQEIsQTEhEQYUIpE4ifqDYtFq3CEZ8h2lIReRCDEKFlypSxLSi16ESmdjwRiKgnGwmQgPcEKBC9Z84RScBoAlEQiDpjGQIIGa1+ZCwb/RCkadzOnTvVHkjUEERtRzYSIIHgEqBADK7vaDkJuEIg7ALxyJEj6pQUZCwvXbpURRDZnCHQv39/tZcTCSHIvGYjARIILgEKxOD6jpaTgCsEwi4QcYby8OHDZerUqUZnLLviXBc7RWIJkkGwzIxsauzvbN68uYsjsmsSIAE3CVAgukmXfZNAAAmEWSDiLOTevXvLmDFjpE+fPgH0jrkmIwP8mWeeyRaIiCJi+Z6NBEggmAQoEIPpN1pNAq4RCKtARESrbdu2cs0114QyY9m1B8JGx9boob6cUUQb4HgJCRhMgALRYOfQNBLwg0AYBaLOWG7cuLFaWo5yxrIbz9Stt96qorJYXrYKRBxZh5Np2EiABIJHgAIxeD6jxSTgKoGwCcS9e/dKVlaWKtmCpJRixYq5yi9qnaOsDc4xtp5cohmg4DYit1huZiMBEggWAQrEYPmL1pKA6wTCJBCRsdyxY0f54osv1H44Ziw7//ggc/nJJ59Up69gWfm3336TfPnyqTqIiCi2adNGPv30U+cHZo8kQAKuEqBAdBUvOyeB4BEIk0DUiRMohN2qVavgOcNwi3fs2KHqHkIIIoP5tttuk9tvv10efPBBeeWVV9QRgGiLFi1iRrPhvqR5JBBLgAKRzwQJkEAOAmERiDg674YbbmDGsovPNwT4+PHjZfDgwdKrVy8VPSxatKgsW7ZMGjVqJBMmTJD77rtPcCbyhx9+6KIl7JoESMBpAhSIThNlfyQQcAJhEIg6Y/nGG2+UkSNHBtwjNJ8ESIAEvCdAgeg9c45IAkYTCLpAxLImsmeRsTxt2jS1L46NBEiABEggNQIUiKnx4tUkEHoCQRaIyFhu2rSpFC5cWJVXYcZy6B9XTpAESMAlAhSILoFltyQQVAJBFYhIlOjUqZPKWMYeuEqVKgXVBa7bvXXrVlWaZsuWLVKhQoW0xtN9LF68WJo1a5ZSH0uWLFFJK0ePHk3pPl5MAiTgHQEKRO9YcyQSCASBoApEHJ336quvyieffMKM5VyeNArEQPxTpJEk4CsBCkRf8XNwEjCPQBAFos5YRtZs9+7dzYNqmEVWgYhI4vDhwwX1DHWLjSzWr19fVq5cqX7cpUsXeffddyU2gog6iNZoYmyUED/XTY9njSBax6hXr56sWLFCXT5ixIgctqUTsTQMP80hgUAQoEAMhJtoJAl4RyBoAnH69OlqaRkCZ9iwYd6BCvBIsQLRKsj69esnM2fOzBZoEG7t2rVTQg0NX+M86x49eqhlai3YkglEfQ/6RtNiUQvE2DEw1osvvijjxo3LsRQ9adIk9QcAl6YD/PDR9MAQoEAMjKtoKAl4QyBIAhEZy0hK6dChg6rHx4xle89IrECcOHGidOvWTd1sjfwl2iuI+9HsCEQIyNj9hlahhzFQQ1FHDPUMIBp79uwpAwcOpCC051ZeRQKOEqBAdBQnOyOB4BMIikDctWuXKmeDjOWFCxdKoUKFgg/foxnECsRES8MQcvglESveYKbdJWYsJ8+bN08tS+tmFZ6xS8hWBBCuGF8vb1uFrEeoOAwJRJYABWJkXc+Jk0B8AkEQiMhYbtu2rWzatElQFJsZy6k9zaYJRCwnxxOh1llheVoXPc8k+zo1UryaBKJLgAIxur7nzEkgLoEgCESdsYzIYcOGDenJFAnYFYjJytHEiyBaI3x6GdnOEjOWoO2KPiw942g/vSSe4tR5OQmQgE0CFIg2QfEyEogKAdMFIqJIiCYxYzn9J9KuQMQIsQkmYL9hwwZ56qmncuxB7Nq1q1SuXDlHMguWhpFQEpuEEi9JpXr16tnL0FqY3nrrrTJq1KjsPYiZ1F5MnxbvJIFoEqBAjKbfOWsSSEjAZIGIjOWOHTvKfffdJ0OGDKEX0ySQikDUIjG3Mje6T20SoonWjGNrGZvcytygD70v0rq0jO9zH2KaTudtJJAiAQrEFIHxchIIOwFTBeKXX34pWVlZKmMZ0UM2EiABEiAB9whQILrHlj2TQCAJmCgQkbHcpEkTOeWUU9RJKcxYDuSjRaNJgAQCRIACMUDOoqkk4AUB0wSiNWMZZyyXLl3aCwwcgwRIgAQiTYACMdLu5+RJ4FgCpgnE3r17qyXluXPnMmPZ8Af2119/laJFiwqEfOPGjQ23luaRAAkkI0CByOeDBEggBwGTBCKOzrvnnntk2rRpau8hm9kEKBDN9g+tI4FUCFAgpkKL15JABAiYIhCRrXrxxRfLgw8+KHfddVcEyAd/ihSIwfchZ0ACmgAFIp8FEiAB4yKIyFhu2bKlXHrppTJ27Fh6KCAEKBAD4iiaSQI2CFAg2oDES0ggSgT8jiBaM5Znz54tBQoUiBL+QM+VAjHQ7qPxJJCDAAUiHwgSIAFjIogHDhyQ9u3bC0TiggULmLEcsGeTAjFgDqO5JJCEAAUiHw8SIAFjBGKPHj0Ep6UsXbpUatasSc8EjAAFYsAcRnNJgAKRzwAJkIBdAn4tMePovPvvv58Zy3YdZeB1FIgGOoUmkUCaBBhBTBMcbyOBsBLwQyAiYxnRwxEjRkjfvn3Dijb086JADL2LOcEIEaBAjJCzOVUSsEPAa4GoM5avuOIKefbZZ+2YyGsMJUCBaKhjaBYJpEGAAjENaLyFBMJMwEuBuHnzZmnVqpXUqVNHpk6dyoxlHx6s7777TrZv3y7btm1T799//71s3bpVfYbgO3z4sOC4Q7xy+3zw4MEcMzjhhBOUT/Pnz6/ek30uXLiwlC1bVsqXL6/ey5Urp174ukKFCjx/24dng0NGmwAFYrT9z9mTwDEEvBKIyFhGrcP9+/erpJRixYrRGw4SAF+IP/2CGNciUL//9NNPasQSJUpIqVKl1AtnXeO9TJkyUrBgwVyFnVX8aRFoV1BaRedvv/0mO3fuVBnsu3fvzvGCjTjCTwtGLSQrVaokVapUUa+qVasKBCkbCZCAMwQoEJ3hyF5IIDQEvBCIR44cUaekzJkzR5WzYcZyeo/P+vXrswXgxo0b5dtvv83+GpHAk046SWrVqqVe1apVO0YEaiGY3uje3aUFY6x4hPhds2aNrF27Vnbs2KHmaxWMlStXzv4aDNhIgATsE6BAtM+KV5JAJAh4IRBxdN7w4cMFhbCxxMyWO4Eff/xRiWn9+vzzz+X333+X448/XqpXr65EIIS2FoRYti9evHjuHYfkin379snXX3+txCJEo36tW7dO8LN8+fJJgwYN5Mwzz5TWrVvLWWedJSeffHJIZs9pkIDzBCgQnWfKHkkg0ATcFog6Y3nMmDHSp0+fQLNy03hExyAGFy1aJPPnz5eVK1eq4Zo3b54tcCACsbTKlpwAltdXr16teM6bN0+WLFkiWIKvUaOGtGjRIls01q5dmyhJgAT+IkCByEeBBEggBwE3BeJnn32mTkq57rrrZOTIkSRvIYBl1HfeeUdFVSFkkCiCPXUQMIh2IfLVpk0bMnOIwOLFixVniG+879mzR0qWLKk4Z2VlSbdu3QR7HNlIIKoEKBCj6nnOmwQSEHBLICKK06RJE2ncuLEqhp03b97I++Cbb76RyZMny/vvvy8Qz1gSbteuXXZEC7zYvCGwYsUKWbhwoRKMM2fOVNncjRo1kk6dOqnX6aef7o0hHIUEDCFAgWiII2gGCZhCwA2BuHfvXhWVQZs7d26kM5aRTPH666+rF/bMYQ8moqp4QTxTOJvxLwFL0jNmzFAvJFMhc/qyyy5TL+z5ZCOBsBOgQAy7hzk/EkiRgNMCERnLHTt2lC+++EKWLVsW2WW7V155RfDCEjKWja+88krp2bOnKt/CZj6Bt956S15++WUlGJs2bar8d9VVV0mRIkXMN54WkkAaBCgQ04DGW0ggzAScFohRzlhGtPDJJ5+U5557Tv744w/p3bu32n/JCFRw/wVhbyiE/lNPPSW//PKLXHPNNXLTTTephBc2EggTAQrEMHmTcyEBBwg4KRDHjRunRNHYsWOlV69eDlgXjC5wosjQoUPliSeeENTiu/XWW+Xqq6/maSDBcJ8tK3GqDDLyUa4JkXE83w8//LBKdGEjgTAQoEAMgxc5BxJwkIBTAhFJF23btpX+/fvLsGHDHLTQ7K4+/PBDufHGG+Xo0aNKMFx66aVmG0zrMiaApKs77rhDFet+/PHH1R8DbCQQdAIUiEH3IO0nAYcJOCEQUaxYl2UZP358ZBIv+vXrp8r3PPDAA3LPPfc47Bl2ZzqBF154QW6++Wa54IIL5KWXXuL+RNMdRvuSEqBA5ANCAiSQg0CmAhEZy9jEX7hwYVU2pFChQqEnjKLLHTp0kOXLl8u7776rIqemta5du8qUKVMSmtW3b18ZMWJEjp9jv13FihUFNQObNWtm2pSMtAflcpCUhbPFkZDE01qMdBONskGAAtEGJF5CAlEikIlA1BnLq1atUnX9olJouEePHup0jk8//TQQCSiwFSeybNmyRSpUqBClx9uTuf7www+qbFHBggXVH0lsJBBEAhSIQfQabSYBFwlkIhARhXr++efVL8WGDRu6aKU5XY8ePVolKkAQB0VsUSC6//wgko5IMs595qlB7vPmCM4ToEB0nil7JIFAE0hXID777LNyww03yIQJE6R79+6BZmDX+B9//FFlKb/44oty4YUX2r3N9+sSCcQ8efIIRL4WNEuXLlXbBaxLzPpe6ySQzYuj6awNfekGAY1kJSTuWFv9+vWzz5iuV6+eYHlWt3jjxN7vO8hcDPjqq69U8XMURK9Zs6bp5tI+EshBgAKRDwQJkEAOAukIxOnTp6vjyAYOHChDhgyJDFFkrKKUD07dCFJLJhCtQi12D6L+2ioIdWKOVbxB+KE+IH6GpsVi7DU4VlDve8Q7hDZEYry9j+hrw4YNao9nkBoSVrDVYsyYMUEym7aSgFAg8iEgARLISCAiYxlRJiRpIHoYpYaTNCB6UDg5SC2ZQES0Tws7O0kqkyZNUhFjLf5ivwaX2O/p8WMjghCSEJ8QVNgjGYbkGNTD/OSTT9QZz2wkECQCFIhB8hZtJQEPCKQSQdQZy6VLl1a/BKOQsQwXIBln5syZatkUwhgFsYPUkglEa3QwmUC0LiFj7lrsIRI4b968HJG+WEGIa8AuXtMCVUcm9TVBW17WdmPrBfapInGLjQSCRIACMUjeoq0k4AEBuwLx0KFDalkZv/hwkgREYtgbkm/efvttee211wT7D1HrEWfxfvzxx4GaeiYCUQtDLeTiiT87AlEvJ+cGTovUoApFHMOHbPFkJYZyY8Cfk4AfBCgQ/aDOMUnAYAJ2BWKfPn3k1VdfDX3GMhINIApffvll2b59u+TLl0+dq4z25ptvqr123333nZQtW9Zgr+Y0LV2BiKVi/NKwJpNkssScapkdvQQdmxBjKngcuYgkpoceekg9J2wkECQCFIhB8hZtJQEPCNgRiMhyve222wSnpIQxY3n9+vVK/GFvIT4ff/zx8ttvv+WgX7t2bZWd2qRJE/VCeZ+gtEwEIvythZ01umcVe3aTVKpXr569FK1twr5DtNg9iEEszfPoo4+qo/d27twZlEeDdpJANgEKRD4MJEACOQjkJhCRsYyTIh588EG56667QkUPIvDee+9VewqT7XnDsjLmjmuRfHDWWWepo9WQtBKElq5AxNxi9wZCGOK0ldhSN6mWuUHf1qQUHZm08kw14uinL7An95xzzlF/RF100UV+msKxSSAtAhSIaWHjTSQQXgLJBKLOWMbJIWPHjg0thD179sg777yjsm9xXBqSUvCyikaUtqlVq5ZigGux7EkxEP+RiLc0HdqH58+J4ZlBeRv8EYW6kmwkEEQCFIhB9BptJgEXCSQSiLt27VJJGUhGwS/AAgUKuGiFOV3PmjVLRUytS8wQhrG1D5HVDJHYuXNnefLJJ9VZvFFsOvIXu+RsrXkYVi5I3Lr77rvl6aeflhdeeEF69uwZ1qlyXhEgQIEYASdziiSQCoF4AhG/+HBs2KZNmyKTsQxmX3zxhWRlZSlh/J///Ee+//57KVy4sNx5550yaNCgY7Bu3rxZwA/v+M/1+uuvTwV9aK6NXYZGFE0XxA7NJGMmgkSme+65RxUFh0hu0KBBWKfKeUWEAAViRBzNaZKAXQLxBGLv3r1VEey5c+dG5oxliMP27dvLGWecoRIpcEIMRM7vv/+uood6eTkeV0SQEElCtBX3XX755Xbx87qAEXjvvffk/vvvAlfZkwAAIABJREFUV384oSj2fffdF7AZ0FwSiE+AApFPBgmQQA4CsQJx2LBhKjIybdo0VRQ6Ci1WHBYsWFBFEHGubo0aNQR7MXNrWJIfPHiwOmKtXLlycsstt6izqosXL57brfy54QQOHDigkpJQCxJZ7tiT+8gjj6iSNmwkEBYCFIhh8STnQQIOEbAKRJ2xjKzeqGy2jycONVqUZbnyyitTihJhLx6SFVAYGjUUwRfZzmeffbbkzZvXIa+xGy8IIMsawhDLyb/88ovac4qoYbJoshd2cQwScIMABaIbVNknCQSYgBaIV199tdp/d8kllwiOC4tCSyYOMX/sO8RyMaKIqTYIRYhEFBdH1AmlYa644golMho1apRqd7zeIwLwFbLT4TdEjsuUKaP+SMC/D9TCZCOBsBKgQAyrZzkvEkiTAARiqVKl1PFxderUkalTp0YiYzk3cQicu3fvVmwybahDiELcSGbYtm2bVKlSRS688EIlFps1a5Zp97w/QwLLly+XyZMnq72n+IyM9C5duihhiMgvGwlEgQAFYhS8zDmSQAoE8Itw6dKlcsIJJ6j3KJRrsSMOU0CY0qVgjHN68cK51iVLlpSWLVtmv5Akgz2QbO4QOHz4sMpWxznb+oUTYrCfECWL8EIhdGwPYCOBKBGgQIyStzlXErBBAEufSLDAebs1a9a0cUewL/FTHMaSw3ImTuDAXjeIlXXr1qlLmjZtqgRjixYtpHXr1lK+fPlgQ/fR+h9++EEWLFigGH/22WfqJBw0PPdamEMQctnfRydxaCMIUCAa4QYaQQJmEEDG8sCBA1XUBMtrYW8micN4rCFmIGJ0ZOvzzz8XZNAiyojECAh46zv2Rh533HFhd1uu80NU8Ntvv5U1a9aofYN46c/bt29XWyYaNmyYLQhR55KiO1esvCBiBCgQI+ZwTpcEEhHAWboXX3yxnHbaaWpJbdSoUaGGhVqGrVq1yq5zGIRl3ETLodpRyIo+5ZRT4orHSpUqqSLOYWoQe1bxp0UgxCFY6YZ9o4i+6gghl+3D9BRwLm4RoEB0iyz7JYEAEfjyyy/VL8/rrrtOnZYCMRFmgQhxiJNhEEVCpDQI4jDR44Qoo46S6XcsTeO1f//+7Nvy58+vEmz0C0W8k30++eSTPY1GQtDt3LlTJQLpF7Y6JPvaevwhIqfVqlVTUVX9QkQVn1GHko0ESCA1AhSIqfHi1SQQOgI4Fg6RNGQsoxg2MmnDLBDDJA5zexjhWwhFRNZQZgdHBcaKrz179iTtpmjRoup4wUKFCh3zju/F+/7BgweVOMVyOF7xPlu/9/PPPye14cQTT8whbrWwxbJw3bp1BfUpq1atmhsO/pwESCAFAhSIKcDipSQQNgL45Y3IIX5Z64zleEfthWXeWhxCUCAZJMiRQyd9Yo3UWT/juUBkD2dx45XbZwjDOXPmqGX7EiVKqL1+eCF6mdtn+MIa4dSfy5Yt6+RU2RcJkIBNAhSINkHxMhIIIwEcEYZf6Mjq1BnLYRWIVnH40UcfqTI+bM4SwOkiKIuEZJomTZo42zl7IwES8JQABaKnuDkYCZhDYMiQIfLQQw/J7Nmz1RKzbmEUiBSH3jx3FIjecOYoJOAFAQpELyhzDBIwjAAylhE9HDt2rPTq1SuHdWETiBSH3j18FIjeseZIJOA2AQpEtwmzfxIwjADq6rVv315uueUWQd3D2BYmgUhx6O3DR4HoLW+ORgJuEqBAdJMu+yYBwwggqxV7w9q0aSPjx48X1M0Lq0CkOPT+4aNA9J45RyQBtwhQILpFlv2SgGEEdMYyzMLJHChPEq+FIYJIcejPw0eB6A93jkoCbhCgQHSDKvskAcMIHDlyRJ2SgozlZcuWqTqHiVrQBeKGDRvUqRkoZcNsZW8fRApEb3lzNBJwkwAFopt02TcJGELgrrvuktGjR6vaf9aM5bBFECEOcUJKxYoVKQ59ePYoEH2AziFJwCUCFIgugWW3JGAKgXHjxknv3r1lwoQJ0r1791zNCmoEkeIwV9e6fgEFouuIOQAJeEaAAtEz1ByIBLwngIxlRNQGDhwoqHtopwVRIFIc2vGs+9dQILrPmCOQgFcEKBC9Is1xSMBjAtaMZUQP7bagCUSKQ7uedf86CkT3GXMEEvCKAAWiV6Q5Dgl4SGDv3r2SlZWlRkyWsRzPpCAJRC0OTzrpJJk7dy6Pz/PwGYs3FAWizw7g8CTgIAEKRAdhsisSMIEAMpY7duwoq1atEiwxJ8tYDrJAtIpDJN9AJLL5S4AC0V/+HJ0EnCRAgegkTfZFAgYQ6Nu3rzz//PMqctiwYcOULQpCBJHiMGW3enIDBaInmDkICXhCgALRE8wchAS8IfDss8/Kv/71L3VKip2M5SBGECkOvXmW0hmFAjEdaryHBMwkQIFopl9oFQmkTEBnLA8dOlRQ9zDdZnIEkeIwXa96cx8FojecOQoJeEGAAtELyhyDBFwmsHbtWjnzzDOlc+fOMnbs2IxGM1Ug7tixQ52Qgr2G3HOYkYtdu5kC0TW07JgEPCdAgeg5cg5IAs4SQMZy06ZNpXTp0jJ79mwpUKBARgOYKBAhDlHPsXDhwhSHGXnX3ZspEN3ly95JwEsCFIhe0uZYJOAwgUOHDkmnTp1UxjLOWIZIzLSZJhApDjP1qHf3UyB6x5ojkYDbBCgQ3SbM/knARQJ9+vSRt956S9UATCdjOZ5pJglEikMXHx4XuqZAdAEquyQBnwhQIPoEnsOSQKYEdMbytGnTpEOHDpl2l32/KQKR4tAxl3rWEQWiZ6g5EAm4ToAC0XXEHIAEnCcwffp0tbT86KOPCuoeOtlMEIgUh0561Lu+KBC9Y82RSMBtAhSIbhNm/yTgMAFkLCMp5ZJLLhFEEZ1ufgtEikOnPepdfxSI3rHmSCTgNgEKRLcJs38ScJDArl27VDkbpzKW45nmp0DU4hB2oa4jj89z8OHxoCsKRA8gcwgS8IgABaJHoDkMCWRKABnLKPUCkbhgwQJHMpZNEohWcYhyPWXLls0UGe/3mAAFosfAORwJuEiAAtFFuOyaBJwkoDOWly5dKjVr1nSy6xx9+RFB3LNnj7Rq1UrZQXHommtd75gC0XXEHIAEPCNAgegZag5EAukTGDlypAwYMECmTp3qaMayCRFEiMP27dvL/v37KQ7Tf0SMuJMC0Qg30AgScIQABaIjGNkJCbhHABnLHTt2lKeffloQRXS7eRlBpDh025ve9k+B6C1vjkYCbhKgQHSTLvsmgQwJfPnll5KVlSVXX321IIroRfNKIFIceuFNb8egQPSWN0cjATcJUCC6SZd9k0AGBJCM0qRJE6lTp46gGHbevHkz6M3+rV4IRIpD+/4I0pUUiEHyFm0lgeQEKBD5hJCAgQSsGctISilWrJhnVrotECkOPXOl5wNRIHqOnAOSgGsEKBBdQ8uOSSB9Ar1795b33ntPlbNxM2M5noVuCkSKw/SfiSDcSYEYBC/RRhKwR4AC0R4nXkUCnhEYNmyYDBo0SGX06tIvng3+50BuCUSKQy+96M9YFIj+cOeoJOAGAQpEN6iyTxJIk8DEiRPl4osvlueee0569eqVZi+Z3eaGQKQ4zMwnQbmbAjEonqKdJJA7AQrE3BnxChLwhAAyllu2bCm33HKLIIroV3NaIFIc+uVJ78elQPSeOUckAbcIUCC6RZb9kkAKBPzKWI5nopMC8ddff1VleiASFy1axOPzUngmgngpBWIQvUabSSA+AQpEPhkk4DOBAwcOqJNE9u3bJ3PnzvU0Y9lNgQhxeN5558mWLVvUfsrKlSv7TJrDu02AAtFtwuyfBLwjQIHoHWuORAJxCfTo0UPmzJkjy5Ytk0qVKvlOyYkIIsWh7270xQAKRF+wc1AScIUABaIrWNkpCdgjMGTIEHn00Uflk08+8SVj2Y0IIsWhPd+H8SoKxDB6lXOKKgEKxKh6nvP2nQAylhE9nDBhgnTv3t13e7QBmUQQKQ6NcaMvhlAg+oKdg5KAKwQoEF3Byk5JIDkBnbE8YMAAQRTRpJauQKQ4NMmL/thCgegPd45KAm4QoEB0gyr7JIEkBDZv3qyWk5s3b66ih6a1dAQixaFpXvTHHgpEf7hzVBJwgwAFohtU2ScJJCCAjGXUOkRbuHChFCpUyDhWqQpEikN3Xbhy5UrZvXu3u4M41Due744dO8oXX3whjRo1cqhXdkMCJOAHAQpEP6hzzEgSOHLkiDolZfHixfLZZ58ZkbEczxGpCESKQ/cf5S5duqhzuYPUKBCD5C3aSgLxCVAg8skgAY8I3HXXXTJ69GgVOWzYsKFHo6Y+jF2BSHGYOtt07oBArFKliowYMSKd23kPCZAACaRFgAIxLWy8iQRSI6DPWB4/frxRGcvpRhAPHjyoinuzCHZqz0E6V3fu3FmqVq1KgZgOPN5DAiSQNgEKxLTR8UYSsEcAy8kQU4MGDRJEEU1vuUUQIQ67du0qq1ev5gkpHjgTArFatWoyfPhwD0bjECRAAiTwfwQoEPkkkICLBJCx3KRJE2nTpo2RGcupRhC1OESZHpytzOPzXHx4/ur6H//4h1SvXp0C0X3UHIEESMBCgAKRjwMJuERg7969kpWVJUWKFFEnpZiYsZyKQLSKQ5ytXLt2bZfIsVsrAQjEGjVqyBNPPEEwJEACJOAZAQpEz1BzoCgRQMYyyn2sWrVKnbFcunTpwEw/3hIzxaF/7qNA9I89RyaBKBOgQIyy9zl31whgr+GYMWNk7ty5Rmcs24kgUhy69pjY6rhTp05Sq1Ytefzxx21dz4tIgARIwAkCFIhOUGQfJGAhMG7cOLn++utl2rRp0qFDh8CxsUYQKQ79dx8Fov8+oAUkEEUCFIhR9Drn7BoBZCy3bdtWhg4dGoiM5WQRxEceeURlKyMhhXsOXXtkcu34ggsukFNPPVUee+yxXK/lBSRAAiTgFAEKRKdIsp/IE1i7dq2ceeaZgrIkY8eODSwPRBDLly8v69evpzg0wIsUiAY4gSaQQAQJUCBG0OmcsvMEkLHctGlTlYyCaFuBAgWcH8SjHhE1/M9//iO//fYbI4ceMU82zPnnny916tRhBNEAX9AEEogSAQrEKHmbc3WFgM5Y/u6772TBggWByliOBXL48GFV2/DHH39U2dcsZePKI5NSpxCIdevWlUcffTSl+3gxCZAACWRCgAIxE3q8lwT+JNC3b1956aWXZOnSpVKzZs3AMoE4vOSSS+SDDz5QxwG++uqrgZ1LmAynQAyTNzkXEggOAQrE4PiKlhpI4Nlnn5VbbrlFpk6dGsiMZY1Ui0NEQOvXr6+SIkaNGmUg8eiZhHqa8AmShthIgARIwCsCFIhekeY4oSMwffp0QQmS0aNHS58+fQI7P6s4xP7JgQMHSqVKlSgQDfEoBaIhjqAZJBAxAhSIEXM4p+sMAWQsIykFS7KIIga1aXE4a9YsQYke7DmMd5JKUOcXBrvPO+88adCggQwbNiwM0+EcSIAEAkKAAjEgjqKZ5hDQGctVqlRRS8tBzVi2ikOcFd24cWMFmQLRnGcNllAgmuUPWkMCUSFAgRgVT3OejhA4dOiQWlZGxjKSUooVK+ZIv153kkgcUiB67Yncxzv33HPVcY2MIObOileQAAk4R4AC0TmW7CkCBLDXcPLkyaqcTVAzlpOJQwpE8x5iCMRGjRrJww8/bJ5xtIgESCC0BCgQQ+taTsxpAiNHjpQBAwao4tGtWrVyuntP+stNHFIgeuKGlAahQEwJFy8mARJwiAAFokMg2U24CSBjGdmkTz/9dGAzllHQ+6KLLhIkpFj3HMZ6jnsQzXqWO3ToIE2aNJGHHnrILMNoDQmQQKgJUCCG2r2cnBMEdMby1VdfLYgiBrFBHPbu3VumTJmSVBwygmiedykQzfMJLSKBKBCgQIyClznHtAns2rVLzjzzTEHG8rRp0yRv3rxp9+XXjamIQwpEv7yUeNxzzjlHlVR68MEHzTOOFpEACYSWAAViaF3LiWVKABnLbdu2lX379sncuXMDmbGcqjikQMz0qXH+fgpE55myRxIggdwJUCDmzohXRJQAlmTfe+89WbZsmTpZJGgtHXFIgWiel9u3by/NmjWTBx54wDzjaBEJkEBoCVAghta1nFgmBFBzbujQoWq/XhAzltMVhxSImTw17txLgegOV/ZKAiSQnAAFIp8QEoghoDOWx48fL927dw8cn0zEIQWiee6mQDTPJ7SIBKJAgAIxCl7mHG0T+PLLLyUrK0tuuOGGQJ5cocXhhAkT1L5JfXyebQB/XsgyN6nQcv/adu3aSYsWLeT+++93fzCOQAIkQAJ/EaBA5KNAAn8RQMYy6s01b95cED0MWsayVRx+9NFHKvs6nUaBmA419+6hQHSPLXsmARJITIACkU8HCfxJ4MCBA4KlPGQsL1y4UAoVKhQoLk6JQ0yaAtEs1//9739X+2CxJ5aNBEiABLwiQIHoFWmOYzSBHj16yOLFi+Wzzz4LZMbytddeK1hWziRyqB1EgWjWo0qBaJY/aA0JRIUABWJUPM15JiSgM5YROWzYsGHgSPXr10/GjRvniDhkBNE895999tnSunVrwX/WbCRAAiTgFQEKRK9IcxwjCUycOFEuvvhitecwiBnLTotDCkR/H9O3335bIAhLly6dbUg8gbhq1SrBnlkkVLGRAAmQgBsEKBDdoMo+A0EAGcstW7aUAQMGyJAhQwJhs9VIN8QhBaK/j8HMmTPl/PPPl169esl9990nZcuWVYJRRxDxzOJ5xXaIjRs3SokSJfw1mKOTAAmElgAFYmhdy4klI7B582a18R8Zy9i7F7TmljikQPT/ScAzuWTJEsmXL59cf/31AlFYr1492bBhg8yYMUMZOHjw4ED+UeM/XVpAAiRglwAFol1SvC40BJCxjMhhkSJF1EkpQctYdlMcUiD6/5h//PHHct555ylDIBL/+OMP9TlPnjxy9OhRKVy4sGzdulVOPPFE/42lBSRAAqElQIEYWtdyYokI6IxlnLFs3esVBGJui0MKRDOeAtTjXL58uRw+fDiHQccdd5zcfffdjB6a4SZaQQKhJkCBGGr3cnKxBLDXcMSIEeqUkaBlLHshDikQzfg388EHH0inTp2OMeaEE06QLVu2SPHixc0wlFaQAAmElgAFYmhdy4nFEtAZy9OmTZMOHToECpBX4pAC0ZzHokGDBoJsZR1FLFCggNx7770yaNAgc4ykJSRAAqElQIEYWtdyYlYCKICNk1Lwy/Wuu+4KFBzYO2rUKLVfMt3j81KZMAtlp0LLvWvff/996dy5c/YAiB5u375d8M5GAiRAAm4ToEB0mzD7950AMpaxpwu/bMeOHeu7PakYgCXxRx55RN59910599xzU7k17WspENNG5/iN9evXl6+//lolq6DsDSKIbCRAAiTgBQEKRC8ocwzfCFgzlmfPni1YpgtK80Mcgg0FojlPyOTJk+XCCy9UUUNGD83xCy0hgSgQoECMgpcjOscjR46oU1K++uorWbBgQaAylv0ShxSIZv1jQVkb7EW85JJLVPYyGwmQAAl4RYAC0SvSHMdzAti7N2bMGFm6dKnUrFnT8/HTHdBPcUiBmK7X/nfftm3bVLQPL3z+/vvvVd1CfP3zzz/Lb7/9JocOHVLJJ3hP9hkRcGtD7c78+fOrSDheyT4XLFhQSpUqJeXLl5dy5crleOF7J510UuaTZQ8kQAKhJUCBGFrXRnti48aNU6dQBC1j2W9xSIGY/N/Nd999J/q1adOmbOFnFYPoAUIO4gx1NvGuP6M8TW7CLlb8HX/88UpM2hGU1msgPH/44Qd1ZvPu3bvVC59hq25/+9vflIDEkX4QkZUqVRJ8r0qVKupVpkyZaP9HwtmTQIQJUCBG2PlhnToyltu2bSuPPvqo9O3bNzDTNEEcRl0gQjxpAYij7b799tscX+PUnRo1akitWrVUVPrkk0/OIQIhBCGyTG979+49RjhCQO7YsUOV1lm7dq2sX79endpSuXLlbMGohSPeq1atKsWKFTN9qrSPBEggTQIUiGmC421mEtAZy0i0ePbZZ800Mo5VpojDqAlEZAjPmjVLvebMmSN79uyRvHnzyimnnJItAiEGtSCE+MORd1FoiEB+8803SiyuWbMm+4WvEYlEq169upx99tnZr6CdTBQFP3KOJJAuAQrEdMnxPuMIICqSlZWllsWmTp0amIxlk8Rh2AUiloVnzJiRLQqxPxDir02bNtKiRQs57bTTpFGjRsY926YZhH9rK1askCVLlggi9vPnz1eiEWV52rVrp/4dQjgWLVrUNNNpDwmQgE0CFIg2QfEyswkgY7ljx45qORBJKUFZ+jJNHIZNICIpZPr06UoUIkKIZdMzzjhDWrVqJa1bt1ZChskazvzbxtL0okWLlFhcuHChrFu3Tpo1a6bE99///ndVqJ6NBEggOAQoEIPjK1qahAD2Gr755puqnE1QMpaHDRsm+AfoZRFsOw9R0Osgbty4UaZMmSI4iQRCpWXLluoEGghCCEPsI2Rzn8DOnTuVWIQwx79LCEYUe0fpKbzzRBj3fcARSCATAhSImdDjvUYQwF7DW265RVAIGwKALXoEUE7mtddek7fffluVjTnvvPNU1Oqss86iIDTkccAS9KeffqqiuYjqor7jRRddJD169KCPDPERzSABKwEKRD4PgSagM5ZHjx4tffr0CfRcaHxqBPbt2ycTJkxQwhAZx5dffrlcddVVKuOWzXwCiCq++OKL8uGHH6r9itdccw2Xoc13Gy2MEAEKxAg5O2xTRTYllg579uwpI0eODNv0OJ8EBFB65qmnnlLiAvtOe/XqpQQGWzAJ7N+/XyZNmiT4Iw9Z5DfddJPyaVD2EQeTOq0mgdwJUCDmzohXGEgAWZRNmzZV0SIUw0ZpEjZnCODUjwoVKjjTmYO9IErYr18/tZUA0eJ//etfgag56CCC0HeFFYFRo0apqCK2jdx3332qFiMbCZCA9wQoEL1nzhEzJIA9Zp06dVJHmM2dOzflSIMuxTFixIhjLMH3+vfvLzgDF0KpYsWKsnjxYpWN6XRD/9isj3IhaF27dlXJFboh8SaejbF2OGkn2GCpD0LMlIaj6ZDQo7cR4AhFlk8xxTvu2IHVAZw9/fnnnyvB2KVLF3cGYq8kQAIJCVAg8uEIHAFEjyZPnizLli1LK4KE5azu3bsrERjbvBRIsAOFvSHGIA5xYoVVECYTsla7wywQUbaoc+fOKjP96aef5tFvgfvXmpnBqLOIfaWnn366PP/880xmyQwn7yaBlAhQIKaEixf7TcCpjGWchjFx4kTp1q1b9pTwy6h58+ayZcsWtcQaK7wg2FauXKmur1evXnbkD98fPHhwdl/oW/eBa/F1PDEKUYhoGKKTuCY2Uqntsd4bz4Z4AjGRrbDH+jNEZlBmB80awbQbvXTzefj4449VSZQBAwbIwIEDMxoqNjpr7Wz48OGOREydFOq5TTbZfHBvIv95aWNuc7D7c2wnwXOAP6aw9IxTbthIgATcJ0CB6D5jjuAQAZTGwNLyM888ozaxZ9IQtcOeNi2O0Beid/Pmzcv+nvWXKcbDCRE6wod3JElgeRh94ZcW3rWo0+ITX2N51DqOttsqHCHacGxZvOv09bERRW0DhJR1KTzRdbA19mexEVMvI6jJ/PfFF1+oBKSXX35ZlUHJtEFQoeRN7NJ5rL8yHceP+2P/sPHDBi/GvPLKK9WSM+bLGopeEOcYUSdAgRj1JyAg88eeJCSl3HDDDUpwZdoSRd2skUB9zQsvvKCEod4raBVs48aNU5GNN954Q4k7LTK1GIEgQW1Ga6QS92N5GRvyteDUY1nnZY1C4pciRGo8Gx566CH5xz/+oSKQaImugy3XXnvtMdFMa1KKCQIRmaw48g57QfFyoiUSiOg73h8LTozpVR9REYjg2aFDByUO33nnHa/wchwSiCwBCsTIuj44E0eBXUSTUFh3/PjxjmUsW/f9xVvO1aLt1ltvVRvl4zVECnGGLyJ4WArWy8Y6agjBhQhfbFZwIuGoxSP2SKLpJWCdPBPPBiy7Y18mBCJODkkkqvB9FCmOFZnWPk0QiJgLorvg5lRLVSAmW6KPt18U/nnuuedkzZo1x2wVSNRXbD/6ebP+YRAb1Y7HI5lARJQay826DBSOocQfWtbtDPp+a9+x2y/Qj25YkteJXLHPTrwtGE75EP389NNPUqNGDRW9x2oCGwmQgHsEKBDdY8ueHSCAjOW2bdsKiiJD/Dh5TJpVFFqXibXZVoGIEyByE1Z6qRdCEf3dfvvtqqZbvGVjiIZk/cEGa5QTc9dL2rFY7V6HqCX+wec2Dz+zmHEiCsQ0jmXDkrtTLZUl5mRL9FYBH7s39MILL1R8reIrWV/WbQroV/8RYN0TaUew5yYQrftlYyPn+murIMSzC0Gp5xdrgxaLsfNPtAXDKR/qfvDH2quvvqqS1NhIgATcI0CB6B5b9uwAAUSTUOcQy7GVKlVyoMecXegEE0TsrJEbq0DDEjOWZmN/bu1J723T+xr113pvovXa2H2JyYQb7MMyNpo1gcban/WXfrLr4kVJY4HaESSOO8HS4dSpU1Xh819++cXRYZIldVjFUSJGsUlN1qQifU9sdC63vnTkWT9XOqKon6F4EcV4UHITiFbBaSdJxZrlHy/jP/Z7uc0zdntFpo7F/wVZWVmC8kf58uXLtDveTwIkkIAABSIfDWMJIIqB7FVEzxo2bOiKnTpqY83m1QPFJqlYk0j0L0UdLdK/NHX2qO43nqjU+w6tCRMQHLE2xEaYYhNZtA3vv/9+9h5EZEQnug62Yn+iNUIYu/8u2VKs0w7AcuEPP/wgu3fvzn598MEH8vXXX2dnizs1Zuy8NLvYDOZkS/nWa639aYY43cWaLGSnL6sg10lL+t1OxBd8chOIVgGcTCBal5HRLyINJq09AAAgAElEQVSE8Za4YwWhnXk65Uf0gz2/+MMLJ+rwWEUnybIvEshJgAKRT4SRBJCxjGPUsOdQ78dzy9B4JW8wVrIyN/i5dSkxdqkuUVIJ7ku0LzE2ymVdGtRzt+5n0zZAlMQW9I53nS72najMDfpLJpjT4b969Wq1XIl9pDt27JCdO3cqUYjSJX/88ccxXaKcCZbkDx48mM5wCe+JJ3y1qLcKqFhRnqhDq3jTz4+OCOrnwk5fWlyi3JHetwpbL730UpX4FC/zOtamTAWiFoZaAFsFoF2BmGj7g6NO/KszFMfH0YoHDhyQ4447zo0h2CcJkMCfBCgQ+RgYR+DLL79US0j45TlkyBDj7KNBqRH45JNPVOQSJ99gWTBRg8jFHwZ169ZVWwpatmyZ2kBJrk4UGdWiXO+nSyUjGMLKmrAR+weFnb70NYg86+0IEGWbNm1SwtrOKT6ZCMR4Ucp0l5iTbcFwzJF/dnTPPfeoKgBICGIjARJwjwAFonts2XMaBBBpatKkidpvN2HChDR64C0mEkCSEQpejxkzRkV94glFnLHcpk0b5fvjjz9eHaPoVEskELWosxaWTrZEbz1yUSdz6HsTlU5KtjUB89MRPC2wtOCLF0GOxyNTgWjdf2stt6TtsZukkts8nfAlSiBBSEMk4ig+NhIgAfcIUCC6x5Y9p0hAZyzjNkSdnMxYTtEUXu4Sgffee08tn2J58MiRI2qUAgUKCDKA33rrLfU1SqVAlDz++ONy2223OWJJsr2VibKHdckWGBAvkqcjbfpnifb3JVvuR9+w7ZtvvsmRXR6b/ZwMQiYCEf1qoavHgDBENNe69J5qmZtEzDJ1Zvv27VUkevny5Zl2xftJgARyIUCByEfEGAK9e/dWS4woX1G6dGlj7Io1BPutrr/+elX3DgkfYWv//Oc/VcZ4otqP6c73iSeekKFDh6roICLFuhUsWFA2btwoJ598cvb38Byce+658vrrrytByWYOAbvJM05bfMUVV8j8+fOVWC9TpozT3bM/EiCBGAIUiHwkjCCADfoQD25mLDsxUfxyvOSSS0IrDsHIaYEIn0L8I2EFJ+Gg8HjNmjWVO1CmBNm/KGcU2z766CN1zN5ll12mkmcgJNm8JaCjpNb9halEN52wFtnKOuqMjH2exewEVfZBArkToEDMnRGvcJkAlrJQ++7NN990PWM5k6nglyV+UWEfXRgjh5qNUwIR2cp33HGHOk+5UaNGMnbsWGncuLFgKwH2IWLZEl+jfmBsiRVty/r169US7P79++Xhhx82+vnI5Nky+d7YJWjrfk037cY2BPxhgKMkUUsRzxEbCZCAdwQoEL1jzZHiEEDGMrJVBw0aJCj1YWqLijgE/0wFIjKCsQx/5513KjH4wAMPyL/+9a8cRyTiPF0IgK+++kqQjJFbw39UyGhHKRlEm1H+hS28BFAcHueiI8I8evRoVSOUjQRIwFsCFIje8uZoFgI6Y7lDhw4qumRqi5I4zFQgfvHFF3LzzTfLokWL5KqrrlLRn7Jlyx7jWmS84pc+ElHstu+++06dK4xlRmS6I4EFy/1s4SCAiDPOFX/66adl+/btqkj+fffdx60F4XAvZxFAAhSIAXRaGExG9AgZiWgob4JMVhNb1MRhugIRha/xCx3L77Vr11aCP1kdQ+wtfOWVV9LKVEcSE/arQiji3GYs90OMVq1a1cRHiDblQmDevHnqWcAWExRI79+/vyqJxEQUPjok4C8BCkR/+Ud2dAgEZCOanLEcRXGYjkDEL3ZE8yASsVUAn/Pnz5/02Ub0ONNM9RUrVsijjz4qkydPVnsUsewModi5c2c56aSTIvtvKwgTX7VqlSp2jX2FiAwjax5ZykhgyvS5CML8aSMJBIEABWIQvBQyG7GXDJvPUQjZrTOWM0UWVXGYikBEAsl1110ns2bNkosuukgee+wx9Yve64Zo9JQpU1RJnBkzZqgj/JD8cs4556godatWrXgkm9dOiRkP527DN6hvihfKGhUvXlwlHSFLHeI+UaKSz6ZzeBKILAEKxMi63p+JI2MZ5+1OmzZNsPfQxBaFUjbJuOeWpIJTULC38JFHHlEFlZ9//nl1Nq4J7eeff5Y5c+Yo0frpp5/Kf//7X7WH7fTTT1dL3hCLeJUsWdIEc0Nrw9q1a1XJKrywHxV+wDYSnJKDZwUvfDZ1a0loHcOJkUAKBCgQU4DFSzMjoDOWIS6QbGBi0+IQ0TBTbXSbWzKB+MEHHyguqIuHLGXsO0Tha1Pbzp07VXFlnO28YMECVVIHrVatWoJj8yAa8UJtP7b0CWAfIYQgGEMU4ki8YsWKKcYQ5GeeeabizNOR0mfMO0nAawIUiF4Tj+h4mzdvVr8oOnbsqDIVTWwUh//nlXgCEf678cYbBQLxggsukJEjR0q1atVMdGNSmxD9/Pe//50d3YKY2b17txQuXFhq1KihCnhDPOr3U089VYoWLRq4ebphMI4SXLNmjSA6iJf+jD2EWNZHZroW3HhH+SIuG7vhCfZJAt4QoED0hnOkR8EeMfzCQFbi1KlTjVxW+vjjj6VTp05qH11UI4f6IbUKxMOHD4s+Ig/Lss8884wSiGFq69atyyEYsRyKWo664QhACMZY8QhBFLYl0n379snXX3+dLf6sghA/0826bI9/24gQctk+TP8qOBcSEKFA5FPgKoEjR46oPYcoiIzlPSw7mdYgDnFaB07qiLo4tEYQkXiCI/IQLQIX/GeBSFvYG0qt6ChZ7Dtq9emWN29elXFbrlw5KV++vHq3ftbfQx1Iv4UkxN22bdtUfUH9Hu8z9nDqhugfjrXTkVUtkvF1lSpVVBFrNhIggfASoEAMr2+NmBlOR0FtPIhDff6uEYb9ZQTF4bHeOP/882XDhg0qkoSTS1DTsE6dOia5zTdbIKBQogVRRyytfv/994KSPVim1q8dO3YcY1+pUqWUeESUDWIRZYDwbucz9ngikosXTqbBy87n33//XWALhOCvv/6awyYIfdhkfUHsIsoPX6OmJPdl+vaYcWASMIIABaIRbginETguC/vWsKxsYsYyxWHO5w7RXpxigULFOCsZwhAnlXAfWer/PiEkIRhjxSOEGvZB2hV5EIIrV66UIkWKKNFmR1DqayAsS5QocYwQRFSQjQRIgARyI0CBmBsh/jwtAsgabdu2rTpHtU+fPmn14eZNFIc56eKIPCwnI9O8cuXKqoYgIr9s/hM48cQTpWnTpqp+IBsJkAAJeEWAAtEr0hEaBxmvOCu3Z8+eKtvVtEZx+D+PWI/IQ9FyRA0feOABVfB61KhRprkukvZAIKKO48yZMyM5f06aBEjAHwIUiP5wD+2oEBxZWVlqLxOKYWMjv0mN4vB/3tBH5GG5c9iwYepMY/grt0LZJvkzCrZAIOIPLhT+ZiMBEiABrwhQIHpFOgLjYA8b6hxi876JGcsUh//3ECLJ4uabb5bZs2ers4tR2sdaooQC0ax/rBCIODoQp8OwkQAJkIBXBCgQMyCNDeQrVqyQk046Sf72t79l0FM4bkUpFESlcJqCaRnLFIci+/fvF30ONvyD5WTUsIttFIhm/XtEogmW/yHo2UiABEjAKwIUiCmSXr58uTz11FOCTf0QhyglgQaRiL/yURZkwIABcsIJJ6TYc7Avx+kot9xyi/olhhNTTGoQrO3bt5fBgwcLyu5EseEEFGSUI7sWewxvuOEGVWolXqNANOsJgUBs0KCBOmOajQRIgAS8IkCBaJM0TlbAiRJ33323+s8aWZ4QgxBDOO918eLF6izS9957T503ikgafh6FpjOWccpGr169jJoyxOF5550nt912m4qeRa1Zj8hD4WskDaFwc7JGgWjWU0KBaJY/aA0JRIUABaINT6MYbvfu3ZUIfOSRR9SpEolqw+GQ+muvvVYJRUSrHnroIRsjBPcSnDSBY7aQ4IBEB5NalMUhau1BDA4dOlQVaH7++efl7LPPtuUeCkRbmDy7CKsTKFo9d+5cz8bkQCRAAiRAgWjjGWjXrp1s2rRJJk+erA6gt9NeeOEFtaSHX9JYzgtjQ8Yy6rMhojp+/HijMpajLA6RzHDdddfJli1b5M4775SBAwcKiibbbRSIdkl5cx0EIv7fmTdvnjcDchQSIAES+JMABWIuj4E+WQJnCdeuXTulhwbRRixrrl69OnRJLCiN0qlTJ3XU2MKFC9WyuiktquIQx6ohuv3222/LBRdcoP44qVatWspuoUBMGZmrN0Ag1q1bV+bPn+/qOOycBEiABKwEKBCTPA/r169Xf7kDEhJPUm0o+9K8eXN1bBn+cw/TkWU4HQUR1WXLlqmiyqa0KIpDfUTevffeK8WLFxfsBYVATLdRIKZLzp37UIII5yNTILrDl72SAAnEJ0CBmOTJgCjEch1q+qUr7rTIxPIQlmPD0JCxjPN6cfSXSRnLURSH+og8ZNcjeoh/0IULF87oMaNAzAif4zdDIJ566qmqfBQbCZAACXhFgAIxCWnsPbzssstUMeFMGopHd+3aVZ11G/Q2ffp0tbT8xhtvqMQdU1rUxOEPP/ygyvbgvOQ2bdrIk08+qaJMTjQKRCcoOtcHBCK2t6BaABsJkAAJeEWAAjEJaZxgMGXKFPULOJOGZBVEILGfMcgNGcuIgvbr18+okjFREocot/Tiiy+q5JMCBQqo0ks489rJRoHoJM3M+6JAzJwheyABEkidAAViAmbbt2+X8uXLC5aIq1atmjpZyx1IVsG5xEEuU7Fr1y5VzgYZyxMmTMiIh5M3R0kc4og8RKFRbgmZ8SihVKxYMSdxqr4oEB1HmlGHpUqVUicTIRmMjQRIgAS8IkCBmIA0snQLFiyoTi9o3bp1Rv5AxA3nEyMaGcQGFm3btpV9+/YZlbGM/XdZWVmhL4JtPSLvjDPOUMvJOLXHrUaB6BbZ9PqFQKxRo4YqxM9GAiRAAl4RoEBMQvq0005TJ4PgCLlMGpaoIbCwZyyIDRnLiIBiD5QpGcsQhzg+7+abbzZqudtp/+KPiltvvVWJcxQiRxH2dBOm7NpGgWiXlDfXUSB6w5mjkAAJ5CRAgZjkibjiiiskX7588tJLL2X03CCrFLXpkNwRtIb6j8hUxvIWBLMJTYtDLLeadnqLU3ywtQHFrnG2NZKkHnvsMcFeNC8aBaIXlO2P0aFDB2nUqFFon3X7JHglCZCAlwQoEJPQHj58uIr6ffPNN1KmTJm0/PLaa68JhCbOxK1YsWJaffh9E44PRLFeE5oWh2A6YsQIE0xy1AYckYe9hdi3iiLXY8eOlZYtWzo6Rm6dUSDmRsjbn5977rlq7y+eCTYSIAES8IoABWIS0kjMwAkGzZo1k6lTp6bsEwgr7B3C8vKkSZNSvp835CQQdnGoj8jDc/fAAw+oRJT8+fN7/hhQIHqO/JgBt27dKhUqVFDfP++881T0ngLRf7/QAhKIEgEKxFy8PWPGDMESDzJ3U637d8kll6gkF5SHKVq0aJSeK8fnGmZxaD0i76KLLlJH5JUtW9ZxhnY7pEC0Syrxdcn2iaJUUbJWv359ueaaa1Q5KS0Q8b1HH300Y8OWLFmiTnfKzYaMB2IHJEACgSdAgfj/2/sSsKum/u2lOalQQomUqBDRXFIJZSg+GUuRolCmBt4MXZJChhRvJSGkUJEQ0qREmYeSqCRFhqg0KPnee73vev7rWe19zj5nz3vf67r2dZ7znL3X+q17rXP2vX+jgyW85pprxJNPPilgcr7qqquyXrFlyxaBa2BeBkFs0aJF1mt4gj0CSSWHu3btkomuUSLvgAMOEGPHjhWtW7cOfSuQILpfAhDEF154QXTs2DHnzkyCiET7sGTAD9VtI0F0iyCvJwLpQYAE0cFa40Y+dOhQMXjwYHHKKaeIZ555xjZgAGX5oGlEapinnnpKoBoLW/4IJJUcIugHQTarV68Wt99+uyyTV7JkyfyB8vBKEkT3YGYiiKiqBL/mzz//XA4ETSG0xtDq4TOVDgt7An62IIj4Xfnll1/k+agPr67FOHhwRelL1dauXVtgnsb/dG2mOhdjoW/9OuTXhDsNGxEgAkQACJAg5rAPPvnkE9GpUydpMkby7COOOEI+2f/+++/yB/+rr74SSLCNAIqHH35YlC9fPofeeaqJQBLJIUrk9evXT2qkzzzzTPHoo49GJnWQwp8E0f13MZsGURE7BCDB5KuTM1ODCPcUJMr+8MMPpWAgdqimA5KIfnTCCLI5a9asAgJp9qXIIsbTTc3wkcaDrTI9Dxo0yD0I7IEI5IHAPvvsI/r27ZvHlbzEawRIEHNEFD+gIINffvmlAIGZMGGCvMF36NBBpqJAAuP99tsvx155etLJoV4iD2mPQAzPOuusSC48CaL7ZbHzQVRaQaW9A7mDlUGPyNdJHUzC+Bwpj1BWUTWcM27cOEnydFO2bkK2MicrIohrdEJozthteVH3CLKHNCKAAD0Ed0LRwhY+AiSILtcAJhncUFEbl80bBKCJRe7FpKSywYMEEnpDA4R9ggMkMaqNBNH9ymTTIGIEkLwvvvhij4ARnSCaZmBdMkXydO2jTgpx7fz588W0adMKLtM/V+Pjw3z9Jd0jxR6IwP8hMGnSJOlyQYIYjV1BguhyHUgQXQJoXA5yiLRAF110UezzHG7atEn861//koEo0MggCAW5DaPeSBDdr5ATgqi0jKbPoEkQkYsVFZ3gP2g29JEvQVR9KR9IvDdlcY8EeyACzhF47rnnZOnUdevWOb+IZ/qGAAmiS2hJEF0CqF2eJHI4ceJE+UOHBtPgJZdc4h1QPvdEguge4GwEEaQMAUpo1apVy2hihhkZBBFJ03MhiJlMzFZpbkBMQUbzibx2jxh7IAJC4HcTPtrIA8oWPgIkiC7XgATRJYD/uzxJ5NAbRMLrhQTRPfaZCCJufqiqBM0fGgigrrlDJDNSY6k8iOXKlROVKlWSvs9oivipQBM7DSLOBenTfRyV1lKPZsZ5ukyMZHa//uwhPwRAEPv37y+/D2zhI5Bagrho0SKBsmZu29VXXy1/zGESddtw00BkdNqaIodI5/H444+nbfqRmy8JovslyZQoG24GIG7KN9BMe6P8Ds855xx5Dmq44/cKEfCqKVKYycSsztV9DXViqJuWcS79EN2vO3twh8Czzz4rbr75Zlmali18BFJLEFHGKmp+Dtdee60YOXJk+LsiQAl0cggTWpEiRQIcnUNZIUCCGK19gQcnkDyW2ovWulAa7xFAjmH4ba9Zs8b7ztljzgikliDmjJTNBTQx548kyWH+2Pl5JQmin+jm3vdpp50mGjRoIIYMGZL7xbyCCMQIAVQfQ2Wp7777LkZSJ1dUEkSXa0uCmB+AUSaHpt+WPkNl/oOTf1L9tkgQ89vTfl2F6k1I+3TnnXf6NQT7JQKRQAB5hVFZSgVwRUKoFAtBguhy8UkQcwcwyuQQszGrSugzNCtT5D776F9BghitNUKKJKR+QoQxGxFIMgIoT4t9ToIYjVUmQXS5DiSIuQGIL36TJk1kfdko+xxaRaGq6FEVcWpqEPVgAL38mZk+BH3rUat4b5V2JDdkvTubBNE7LL3oqXnz5qJdu3Zi4MCBXnTHPohAZBFACVKQklWrVkVWxjQJRoLocrVJEJ0DCHIITUjr1q0jTQ4xI5WnTq9CYVam0Aki8tTp6UT0erno69BDD5V9KpKpIkbxftiwYYWqXThH1J8zSRD9wTXfXvFAhVKeiO5kIwJJRuCJJ54QgwcPFitXrkzyNGMzNxJEl0tFgugMwDiRQ8zIyr/Q1ASqc5CaB4Tw888/LwSGqpeLlA1I3wCyqUimynMH0gj/siglJyZBdLangzqrYcOGsm4yEgizEYEkIzB+/HgZjPXtt98meZqxmRsJosulIkHMDmDcyKGaEfLTqSoXVlUpFEG87rrrxIgRIyyBgKYQGiDkuIQZGX1CE6S0hiCRM2fOFEi7FJVGghiVlfivHCeccIK49NJLCxJnR0s6SkME8kMAZuSDDjpIlC5duqADPGwPHTq0ICm8+mDz5s2ibNmy+Q3Eq/JGgAQxb+j+eyEJYmYA40YOkclflcXTSaFuJlYz1gni22+/vYcGUUdGEUFFFNFf3759BXJf6mZsl9vRk8tJED2B0bNOjjvuOHHFFVeIPn36eNYnOyICYSPwyy+/yCpC0IxjfxcrVkyMGzdO5vtcsWKFFO/333+XD9Pbt28XDz30UNgip258EkSXS06CaA9gnMjh0qVLRe/evcXChQvlj5FqyqwME58eWILPdRMzfuDMz3VkVNk0YAJCqN4r30SX29DTy0kQPYXTdWcIeOrVq5e45pprXPfFDohAlBAAORw+fLg47LDDxH333ScJIV7xcI5XVP7ZtWuX1CjCmsMWLAIkiC7xJkG0BjAu5HDr1q1i0KBB0jcQfoFjx44VKIWmmln2TJ+tGaSCMolKG6jXy8UeUalzrr/+ejmW6jcTqXS5NfO+nAQxb+h8ubBWrVrygeKqq67ypX92SgTCQmDDhg2iatWq4q+//pJVtA4++GCxZcsW+ZAOlxz8Hw/f0CyyBY8ACaJLzEkQ9wRQkcP69euLyZMnR7Z83owZMwRqae/cuVPcf//9BaZlc0ZWKW9wTqY0N/hc1cvVz9WjlxH5bAa2uNyOnlxOgugJjJ51UrNmTTFgwACB/cJGBJKGAB5+Hn30UUkG8VsLovj333/LaRYtWpTawxAXnATRJfgkiIUB1Mnhc889J/1KotYQVQxiiOAQaPRuu+02Ua5cuaiJGZo8JIihQW85cPXq1eUevfzyy6MlGKUhAh4gsH79epkGDKZkvZUoUUJ07dpVWnXYwkGABNEl7iSI/wdg1Mnhjh07pKMzSpYdf/zxMhdjnTp1XO6A5F1OghitNcXNE6k/EMnMRgSSiACC9fB7DC2iatAk4p4CEzRbOAiQILrEnQTxvwD++OOPMp0LzMpR1BzOnj1bXHnllQVRcfBrgTmDbU8ESBCjtSuQAgkO+yq6PlrSURoi4B4BU4tYvHhx6Xv473//233n7CFvBEgQ84buvxeSIP6XHKJCCqIto0YOIRvMyPD9QyQoNnyFChVcrnqyLydBjNb6Ilcc8mxeeOGF0RKM0hABDxHo2bOnQKJs+ITDNQmuQNj7bOEhQILoEvu0E8SoksPdu3eLRx55RNx6660C0cUwXyDhMFt2BEgQs2PkxxmI2kTFnQsuuEDA/0q1ihUrijFjxojzzjuv4H9IB/LHH3/I9CBsRCAJCKxZs0Ycfvjhcip4mB81alQSphXrOZAguly+NBPEqJLDjz76SPTo0UNGv911110yfxz8WdicIUCC6AwnP85CTjj4ySI5cKdOnaQbxH777SdQo/acc84RSC4MczM04sjdWapUKT/EYJ9EIBQE4Ab01FNPSd9DpLxhCxcBEkSX+KeVIEaRHP7666/ijjvukH4rSGyNGy1NFLlvcBLE3DHz6grkgKtcubJAaTHkP8Qexl7Gnl6yZInUiiPaE/9HiUc2IhB1BJBrFhpvdfz5558yzyGCBvGqDryHL+KCBQtkSVI8/KijZMmSBX/vvffeMuvEvvvuW3BEHYO4ykeC6HLl0kgQo0YOYZqD7wpyxR144IFi5MiRonXr1i5XNr2XkyCGu/aDBw+WvrJwk1BNacCRH+6AAw6Q/lm4abIRgTAQ+O677ySZszqg5d64caMkhD///LOleCB5dgQQASoglSaBBJHEg5NVK1++fAFZ3H///aViABpIdeChS/0PxJLNGQIkiM5wsj0rbQQxauQQZjaYkz/55BNx++23i5tuuimSuRddbrNALydBDBTuPQbDjRU3Nr3kozoJzvt4AIJDPxsR8BuBjz/+WHzxxRdi2bJl4rPPPhNffvmlNP+qVqZMmT2IGB5gQMLgGqFr+fC3V2bj3377TRJQRUR1DSU+A3Fdt25dAYHViSrI5NFHHy2DKvVXKBfYCiNAguhyR6SJIEaJHOol8tq2bSsz8TNflsvN/L/LSRC9wdFNL7fccousQ6vnhYM/Im6wq1atKhTE4mYcXksEFALLly8Xc+fOFW+//bZ84F6xYoX8CMQOZApH7dq1BerTQyOHo2zZsrEBEFp3EEf4pkOxgCpWIL8rV66UcwChrVevnjj55JNl2dWWLVvGZm5+CUqC6BLZtBDEKJHDl156SfpfwRQBX6yzzjrL5Srych0BEsTw9wPMdMh/qBNElB1DNDPyw7ERAbcIQCs4b948SQrxit94VO1p2LChaNCgQYF2DfswyW3btm2SKOKAhnThwoWyTCoaiCJSuOE1jW5LJIgud34aCKIih9WqVROvvPJKaCbcb7/9Via7xhcY/ob/+te/6Iflcv9aXU6C6AOoeXRp1qhFRRV8B0AU2YhArgggjcxbb70lUDQAB3z8QAZxD8OBQgfQorEJGQj26aefivfff18eIIzAr3HjxpIonnLKKRK7KJaS9XL9SBBdopl0ggh/jmbNmgmQw2nTpoWSVgM/ZHfffbe45557pCyozVmjRg2XK8fL7RAgQYzG3tCrSyBIZcKECTL1DRsRcIIAAjpeffVVSQqhIcTDBUyosLjgAMFhc44A/Bhfe+01MXXqVIkpXD5gjgZhPOOMMxJZtpUE0fn+2OPMtWvXSr+Mpk2byo2TxIZkvMi7hoTTYeRcUyXykF0f1SSQC47NXwRIEP3FN5fekTB49OjR4sgjj5SBAsznmQt66TsXmi/ci5555hlp7UGDtguEsEOHDp4FiaQP2cIzhusHfDVnzJghcYZ/4/HHHy/rpXfu3FlUqlQpERCRILpYRqjkQVzg8Aog+/Xr56I3XqojoErkTZkyRZbKA75IjcDmPwIkiP5j7HQEmLWgLUcJy44dOzq9jOelDAGYQEEKJ02aJCvsnHrqqbJ2N/IJItKYzV8EYIZGFaTJkycL5OMFKQdZjDv+JIh57htEGfIdb+UAACAASURBVKJ8G5xaob6H6efdd9+Vzr1s+SOAJ2AkBYbGEtpZYFynTp38O+SVOSNAgpgzZL5eANcK+NyyEQEdAaRBevrpp8XDDz8sAyxgyQIpvPjiiwVyAbIFjwDylEKzCLIIlyy0yy+/XAZVIgAobo0EMY8VmzlzpvQ5wEZAhBPaVVddJf098EVlIs48QP3PJSDYyGn4008/yVJjiNaEnwdbsAiQIAaLN0cjArkggPx+IIV4eEYELjRVN954ozjqqKNy6Ybn+owAUrGhRCYybcD/E5wB1rA2bdr4PLJ33ZMg5ojlDz/8IDVbSFQ7dOjQgqvxNHfiiScKRBq+/vrrOfaa7tOhkod5Hk74wBWbskKFCukGJcTZkyCGCD6HJgI2CKDUIrTJcLtBVRDUmIePKn8ro79lXn75ZelDP2fOHJlLEoS+e/fukRecBDGHJYL5E2r8EiVKiPnz5+/hMI4EnMcdd5ysB9y/f/8cek7nqXqJvMMOO0w+EZ9wwgnpBCNCsyZBjNBiUJTUI4BqJgMHDpSKBwRCIP0RzMjIA8sWLwSQnHv48OHSVxQVZ+BKBUtZVNeSBDGH/aX7HdqV5Xn++efpj+gA048++kj07t1bmuTvuusu+TTMCE0HwAVwCgliACBrQ2zatGmPmrYI0oK1Au4WMCPi4RQBcTgy/b1ly5ZCwpcuXVrmasMNSL1m+huVMVCtBVUy9Fq2+BsPcWzBIQAycdtttwlon/DgjJs1iwIEh7+fI+G7jZrr48ePlwnxUSa2S5cukctxSoLocBdANYzIJN3v0O5SJHNGqgH6I+6JEG6GSHCN1B34QiC/IcwlbNFBgATRu7VARCn8j1C/FiXyVLkvEEBVK/bPP/+UA0KjgKNixYryUO9hsQCpc0ry1HlIxZGNUJqkE2QUsqGSCw7kfsMr5oGG4AdVZg3fW/wNt5rDDz9cHvSDc793UPIOxPDFF1+U7kyDBg0S+E6yJQ8BZCnA+sK9CkEs+Puiiy6KjLKEBNHBnsNTPIp6w2cAwRPZGv0RrRGaOHGiuOmmm+RNBuZkmOvZoocACaLzNQGhAvFTx3fffScJoXoPYgUNAYgTchlCC6eTQEUE4xB1isTdJnEEgYRrzddffy1AbDBfkEZFGHHTQ5J9HPgfXtmsEcBegskRvmo1a9aUrkoXXnghA/VSsGHwHcJ6w/Rct25dSRhR8zrsRoKYZQV2794t6zDiaRxRtk5L6yh/RDwRpD0/oiqRh1xdUKWDJDrFMewvSBrHJ0G0X3U88S9YsEC888478hVpruBLW65cOUkAcYAMKkJYq1YtATNvWtqGDRsKyCIIoyKO+A2AthJYoILHSSedJJo3by4fEmHWTnuDhQrpUEDAcVOGnyFdbtK3Kz744APRrVs3mRQfvAGksWTJkqEBQYKYBXr4HcIcCnNxrkXL0+6PqJfIQwUUVGSpWrVqaJudAztDgATx/3D67LPPJBGcO3eufIUWbZ999pHEBmUfQXJAAqE1Y8uMAMgiCDXINYL8PvzwQ3kByr8BR+CJ0mVpcjnZuHGj6NOnj0xyfdppp4nHH39cHHLIIdxKKUYAuRQffPBBSQ7xXXjyySflA1UYjQQxA+rK7xD+hG3bts1rfdLqj4gSRMj5hIbayahXyRYPBNJMEGEaxoMdkt/DYgCTKQLSQGCU1gvprNjcI4A8cSDdCxculIQR1ShgZoUZGliDLKJ6TPny5d0PFsEeYFHBdw0aaOTKgzmZjQgoBOCuAv6Aus+IYr/zzjsDdzcgQbTZj7n6Hdpt6zT6I8KPZsiQIfIJCCZ2tnghkDaCuGjRIhkpiocaaLhAUFq2bClJCjSF0BCyBYMA1kKZ8PGAjqhsPFy2b99e1mFPSiQ1qkWhugb219SpU1n5JJjtFctRRo0aJfMm4nsAH8UgC3GQIFpsmXz9Du12n/JHBNh9+/aN5SbNRWj4G6Ghhixb/BBIA0GEjw9MNwic2rx5s/zxRf1aHEcccUT8Fi2BEsPUhuTQb775pjygYaxfv77o3LlzbMvJwe0G1aJgUr755ptlii/6GiZw83o8JaVtRkYDVGxD0GwQjQTRAmWkYcETXj5+h3aLlnZ/xCA2M8fwBoGkEsTff/9djBs3Tjz11FPyu415okwZNFNs0Ufgt99+k9GdWL9PPvlEli7r2rWruOCCC6Iv/H8khPkcZdaQ33Dy5MmiXbt2sZCbQkYDAWQMOO+88wQSp8+aNUs0atTId8FIEA2IvfA7tFs1PDkiGz7zI/q+rzmACwSSRhBxQ0btWpBDpFpBgnYQQ6SYYYsnAljTMWPGSC0wIshV2bmopgtS5BCaawTpBKUBiufqUmo7BJAkHyRx9uzZgZBEEkRtJZTfIUrfoOal1y2N/oheY8j+/EcgKQQRCZ/h5wXtPVJVIXVIhw4dAnf09n/F0jsCEu8jpyoeAJAiJopptBQ5RBQ3ouFJDtO7X72YuU4SoXBCAJ1fjQTxf8h67Xdot2Bp80f0a+OyX/8QSAJBvP/++2WQVJ06dcQDDzzg64+ofyvBnnNBABpFEMT99ttPZk7AQ0EUGsrjwX8SwTesNBOFFYm/DCCJqMc9c+ZMaZH0K3iLBPF/e8UPv0O7bUh/xPh/QZM8gzgTRPip4YcTN2SQhLj4pyV5PwU5N5QtxIMBHhCQFgQl68JskGPAgAFi8eLFsp6yashzh8hUPLxAs52pYS83btxYpsPJ1FDfFzkUEdAQhH+aW1xRShBpjPyUW43hVtYoXa/mBJKIfYEE9NhffiTUJkH8z8r76Xdot7FQtk+x/yDD1qO00SlLNBGIAkFEehMkpM6lQTuP3HmqXjAiX62ak5uyeZ26ieH/yO+JG7zbhlJaePq3amvXrs05MT9uHE2aNPGVJGS64bq5GWfCAvgocnTuueeKl156aQ/IzDXBOZdccomMSkcKozAaiBrMf9hvSIatN8wX0fLYs/Cn9IIghjHHfMfE/FExJBs5zrd/XBfEGG7ky+dac074XTruuONkwNPTTz+dT5cZr0k9QVR+h9is9957r+cA23VIf8TAoOZAOSIQBYI4dOhQsW7dOlmbFomqszUQSpRwQ9m2t99+WwahKL9D/VqljXnhhRek9sJpw41s9erVYtq0aU4vyXqe3Q1MaZeyaYxMwhHmDdftzdjp9SCIVuuqCJe+Poj2BEHDwzjqGwfZoMmuXbu2HH/KlCmFhlZ7EAQSGqBsGj+nGsQg5+d2LKfr7WacIMZwI18+11rNCX6tp5xyivTFxW+Aly3VBDEov0O7BVP+iDCFoD4xGxGIAgJRIIhISYPydTCfIPofZsNMRPGiiy6Spdtws61QoYKwIxLANx+yh/6QQNsLzaFa40w3sL322kvkQmKDuBlmGsPt+E6vz7SuVpihCgVK2EG7iejPoBrqKiMB9vfffy+jrPWm7z+7fYW5qAYNJMzReGCwOh97cvz48dIipZuYFbHUx7Z66NC1t8ccc0xGjabSpCuZVN96v1bj6ntZHw8pppAI2so0nkkutdbnn39+wfR0rbs5ht2DnZsxrPZSNrn0776yHuiYY2+gqo6ai8IbOIEvqGvwXp9Tr169ZG5N7DcvLZKpJogoX/Poo496mu8w1x8g+iPmihjP9xuBKBBEzBFVePADheSweJi76qqrpE+ZSRRBClGRAnWT8WOLlitBzHSjMM2f6sc7280FZk/82KNZmYydEsRcbrinn366eOONN/bQSmUjAdlubJluuHafZRtT38deEEQQJZTsM8kAHi5Q4xg32FKlSvn99RFr1qyRRQKGDRtm+eCvE1lF7nQzMz7X3SAUWQQJA9EFKdIJmcIO/raKaOHVJF1WD0a4FrkZ1YOPlTw6YLqrhdrT6Bd5+TAH9blOCBXpsZIZn1n5IGaTC5iYxErJ4OQBDOeYWmf8ZugmfydjmJvJyTXZ5qbLYcpk9z3ZsGGDqF69uszagCpmXrXUEsQw/A7tFo3+iF5tZ/bjBQJRIYgwG6NYPQIP0OCErYiibnqGZgimZeTEU82OIFqZmLP9YCvCqWsQs11j3iis1sXux16/oeZ6w9VJggpUyCYrZHN6Y7MzY5tzyXbzNfHwgiCCPOGGZuXTh5yXIOuowuJ3A0bIU7dixQpRvHjxQsOp/WdqiJSZ2YoAmv/DWqnz9f4wkCKF+Dub+drOdJ1Je61rEHX/wUzXZCK1VgTRiVzmeFbXZNpT5joAL5OoOhnDiiDq5NiUy8ncdK0hfGl1F4RMc8LeHz58uKdaxFQSxLD8Du1+mOiPKOSTP27+bOEjgFQhlSpVEtdee23owsDxGgdMzaqBKKIMGx6sICs0ID179pQJsHWCaBXMgM8z/YCr682bg27ac/Ijb2qB7AiiXZBKJv9Dp1okEEQnsiqCmA0XpyZmJzdfK4Joh4WuTcukGbbCRY2DPQLChNJ2fjbkPISJD9Ve4PZgtmxaPCstqLmGOgZ6fybBUQ8aSgZzTylfVys87AK57CKOrdZFN5NjDKcaRCdy6SQZfedKEO0eJvQ97mQMK4KoEzpTLidzQ592Ue6ZvoN4kIYWERlZoEn0oqWSICK56n333ScGDx7sBYae9LF8+XJpGjKj3TzpPAad4Kb/119/xUDS/xMxlyACPyZm/gD7MUbU+0TEMsgjbsi4Salm3rDUD7V543P6g60TRCfXOPEhdKo100mrvh7ZzIwgiE5kVQQx040N5zgliE5uvua+copFNoJop0GEVg94PfHEE75u6UmTJskHK5RFs/p+2n1nlbnUCUHU8dX3mR15083COlHLZk62AspuDJNY4Vr1XctG3sw+ncjlhLxl2lOZ9ihcEhDA5mSMfAgi/EWzRa6raH3T1zDb9+SWW24R7777rpg3b54n+zyVBNET5NgJEUgoAlExMQPeq6++WvqP6Q8PRYsWlaY7aEj69u0rWrduLaOW9UAvKyKhNEy6pszJzQhymAQx24+8lwRRkQonN1zTxOx0fk5uhl4QRHXz9YMgZgo+Qvqjli1bShO0n+3CCy8UpUuXLuTuoMZT+8/0R9WjmhFkYPoYWmlGlYZaBa9gDCf5BPV9aaXpzYaNlcuD/oAB+U2Snq+JOVOqJ7f71YmW28kYuRJEJ5jrv1PYC2aAT6ZsBQsXLhQnnXSSfEBBsJ7bRoLoFkFeTwQShkBUCOL69evFoYceKpAQFq1YsWLyQPBHv379ZL5DNCTGRtQzyk6pZqdpUk/mSvvm5AfbJIhOrvGKIFppOvIxMWfLq+jkZuiUIDq5+fpBEO0w//XXX+U+gvbQz8TpeIiBeXnChAmWKZQyEVjdT9T0GVUPCLrGWJmP9fyPOkEEvqYPotW6mL6iOlm1SratayOVPHqQikmCrYJaIJu+l+yCVJAnUgUcmXK53a9KBn0MqyCVbFr1XAmi1bhWc1Pragb4ZNMgYk1QSQi+iHDBcdtIEN0iyOtTi4D5Q64Doeeyc/JkHyUQo0IQoR1EJQpoC4sUKSLdL/r37y8QcKA3lcoEP7TIhagInVW+PLUW+o3VyU3STC+S7RovCSK0CGZQA+ZopvWAZsEuSCXTzRZ9ub3hhh2kYq6Hvj+wj+CCsHLlShnM5Ff76KOP5P7bvHmz1CLqzS64Q51jEgHdFK2nuVHnKyKmExjzd0ado8thF02v+39mystolebGTI1j+j5iTATPmJp7aD9xrZmeR8mLNbWTy8l+Vb/BmVL36GOY5zkZIx+CqEii1dyUPPrDAOTQXRAUbnZmalhTsP9QScptI0F0iyCvTy0CmZzisz3pRRm0KBDEX375RVStWlUGLsHMDMfrAw44wBa2Tp06SUd13NxAIDP5qlk5gGe6GSnCaeZBzHYDy5bH0OkeyeWGi1q/8Gc2b/LZ5ufkZpjphmv1Waabr7mQpnzm52o+TiupqOuR+gTVVJCsGvvazzZ9+nT5APPVV1/5OUyofcftYTdUsEIaHA/VKBbw2muvuZaABNE1hOwgzQhYaYqypbKwu3Hi/7qPFvrWn/jxPojAmCgQRCSP/+OPP2QdW0RUO2nwM9u6dav8cTSTEzu5nuckCwFo9LAnsJf8LOmmUENO3YkTJ4oFCxYkC0htNiSI0V9aaMuhdf70009dC0uC6BpCdpBmBKz8isxIRP1HFX4hdolp0Rd8pfBq5uvDeyTe9bLUm926RYEg5lOLGdcgtQhML88++6wsc8aWTgSQpQIpkFCyEe4EQTREkC5dujS02s9BzJEEMQiU3Y0xY8YMcdlllwlYYdw2EkS3CPL6VCNg52CtawLVOYjGBXk0fUegORw3bpxMcApiAxKoSKbyowNpbNasWU71g/NdmCgQxHxlx3V33323QJWka665RmpkM5mm3YzDa6OHwAcffCDL0i1btkyWukNEZ1ANuefwXYfrCRsRCAsBJGlHbWYvrE0kiGGtIsdNDALZkigrgogbyIgRIyznDX+1Jk2aSGduVXP15ptvLtAagkTCmbtKlSq+4xZ3ggiAUJcZpflAFGCmhhaJZmfft05oA8DvEho8PFwhWOfee+/1JM1HLhNCiTNE0ifZxJwLHjw3HASgZMBvHtyT3DYSRLcI8vrUI6AngtXNxAoYnSDCPy5TklRFBBVRVLn+kHw3CPMyZE4CQVTYjxkzRqAsHypcXH755TJXIoJN2JKBALQl8Ld69dVXxQknnCDgB2iVniWI2cJCAJM26vmyEYGwEIB7xfPPPy+WLFniWgQSRNcQsgMi8N+8XjBn6ilJTIKIG8gVV1xRKPDExE45069evVoSQvVe+SYGgXWSCCLwAjl85JFHpOl548aNon379qJLly4CNZzZ4ofAb7/9JnMN4vuEVCHHH3+8TM6MdQ2zgaTCmhC3ilBhYsaxvUcALhbffvutJ76wJIjerw97TCECKs2HWRoJUJhBKply0qnUOSpPn+o3W6JjLyFPGkFU2IAojh49Wla5+Oyzz6QJsnPnzjLRdlhaJy/XLcl9ITod+S5BDOFbiNa2bVtZg7tDhw6RmDqqVyDiHmlukG4oyg2/MygnF4UGUo00VV7Kk2l+2VIqKd+9XFIqmRknwsQVkfutWrUSgwYNci1GrAiiulnCEbl+/fp75Poy0fD6S5ApgstuMymZ9MS8upxxiApDDrquXbtG/kfP9bfBZQd2yZHNNc6Uk84sZQXzNSKfs9XudCl6ocuTShD1ScI3Eekg4K8D8g2yiOhy5Mxr166dqFy5speQsq8cEcBNGn6kIIU4UEIMmjkQeZD6Sy65pKCSTo5d+3r6cccdJ8s+Ijl3VJvT/JtByI97+po1a2RQnlct2/yyfa7ksMulapWUPYzfaSu8Nm3aJKv5oB4zKum4bbEiiGY1g0yTd7oJcgHQKZlzUoorl3HDPBdlqkDGYfLEjzICJ4AtW3IRSANBVKsHIgLyDd9Q+LOhyD0qYcBPsWnTpvJA9Dj2PGpAs/mDAFIU4XcTNzYcSIyN8olwrUCtbRwg7wcddJA/AnjUK4IDIDv2UVSbH/fGfOfqh+Yt2/yyfZ6NIOJzK2WAH5rQXHHFAy+yN8CVRq/Gk2s/6vzYEES7IuF2E3e6CXIBLo0EEfj8/fff0ul18ODBMioUJh38TaKYy+6Jz7lpIohWq4IbPDRWOBYtWiR+/PFHWboKT+TIrYhXkMby5cvHZ1EjJinK3oEIghQC548//lhKWLt27QKMgfWRRx4ZMckzizN37lypicaDdRj7QykndCn1dCe69UJ3h7FL3m9VWg99mylUso1rhRosfCqtl/pcES/4cqtmutdkqtBjNz99fKfcIFs1pvnz5xcKHLSaT9CbF+4yaM8995wnQ8eGIOplzUyihk0FE+5DDz0kQalVq1ZBuSP1JXBSSspqk+vlsrwgiKasVubybHJgjtlqdeKcXEpdOdlNKHs2efJkEkUnYMX4nLQTRHPpVq1aVaDZAqmBxhHfBaQcAoGBv5n+evjhh8va0Wlv27dvl2X/vv766z1eoR3cZ599ZO1ipanFaxikyst1wr7AfkDEPFxzgmxW9yerRP4mQcJ7u+T9qk/MQxE19IkShsrtxem4JhZWBEyvO4zzzbFM8y76QNS47oKTjQBm+1zJmYkggo+APOnjKhyC9BfXMV23bp2oXr26XBuvigREmiACcJX3TUVzwlfBiiCahbbNTZCNIFppKM0C6l4RRF1Ws08ncljNDRvFfFK0+9K7/dEiUXSLYLSvJ0HMvD525lB1VYkSJUSNGjX2II4gkU7LBkZ7h/yfdPgtgPuJTgLV37hR6r9JutkeZLBu3bqJNNvjIRrZCuBbt//++we2lEqxYNbhNgXQ7x96ii79PKXJU7lZkUpIL1eom1idjmvKYWWmNf+ny2flumVXqAC5MO3KK2YKUtHnmY0gQstpalLt/NCD2ASonoLvHAiiVy3SBBFkUC2ySiOCSCcrgmhu4FwJohWgutYSn3tFEHVZnfSpy2HKBLnM/2X70nsVLYabw8svvyxrnX7yySc0PXv1rQy5HxLE3BYANwl8j0GMcKxYsaLgb2gfd+7cWdDh3nvvLQNgDj744IJX/W/1GRzNw2z4bm/YsEFAK7F+/Xp5qL/1/8H8vmvXrgJRy5YtK2rWrCk1quoVf8N0jM/S0LAfoASA3+TIkSMDnbJSaqhBrapp6PdGFfhpJSTuUxdccIFM3m+STpM8ORnXiiCa/WZS5Fhp7dCnlUY0G0HM9LmSMxtBNDWISha9ilZQi48Sj9hzixcvljEDXrVIE0RsFvXjqxIHWxE1K9buhiCazp3qS+aEzEG+TEEqpqyZ+rSSw6zzq4+n5Mz2pfejcD1y9ulEEcmJvdyoXm149pMdARLE7BjlcgZII/KSffnll5JooUaqeSD60GwwVYM8lipVShQvXlwexYoVy/q3Og9RvyCnIHB4dfI3AnTwmwQ5zVaxYkWhDpQvxN/QiB522GFSW4r0TYz+/i9qL730ksyzCT81+KsG3XTTMMY2rUuKIOFeMX78eNssCXb3JzszbaZx/SSIOinLZkLO9rkTgmhlug+LIOJ7jXtt1apVBeowe9kiTxDhA4gatXoovJUGUfcVVAulPyVkMzHjGkXIlIbP1MQFRRAzyeGUIGb60nu5gcy+dKJ4+umni7vuuotE0U/AfeibBNEHUB10Cc2cSRwR7ABfvlxIHq4BIT3xxBMdkUqddJYpU6aABIIAKiKINEBsuSGAxN3Q6ODBIEz8TKWElYnZzm/OLjjUvJ9aIZPN3GpnYta1in6ZmN1qEO3mlm3Oue0gZ2ejytYzzzwjc7si6t/LFmmCqFg6Jqwn0syXIOok0jTLWqmv/TIxZwp8ySZHLibmsJxlsV6oSYrNhS84iaKXX1n/+yJB9B9jP0d48803xdlnny127Njh5zDsOwsC8FWtV6+e1OwgjZIXaUcyDWnlC2hlzbIyydol74flDgea0kKagSNOxzVltwtSsSOIuD4KQSqmDGpeYQSpvPLKK9K1C995xBx43SJNEPVoXl1Fng9BNCO1lKOq6lcRL0WqrKK3gtAgOpHDaZBKpoodXm8ku/5IFINC2rtxSBC9wzKMnkgQw0DdekykBYP5b+DAgYFENav7hy6NqShQLkh6sKQZuKFImlWaGzMgFGM5GddEyEoZ4sTSly07h9X89LEzBangPDX3XCqp4Dor656fO/G7776TfofXXXedtNT50SJNEDFhq+TYTgiiuUlM3who8cwoJNPRFl8sPD0pjV8QBBFzziYHzsk1zY2+8f3YSNn6NIkifBS9CsXPNjY/zw0BEsTc8Ira2SSI0VoRJGA/66yzxKhRowRMm3FqTu95+c4J97EwLV35ym11XZCJsuF216JFC+nfivKTfqXVijxB9HIBk9qXXXRXFOc7Z84caXpGpQEQxKFDh5IoRmyhSBAjtiA5ikOCmCNgAZwOknjmmWfK3zvk7I1L85sg+lFqLwxsgyy1h7yPIIeIkveTHAJHEsQwdpOLMU0TNLoyzecuug/s0gULFohbbrlF4JVEMTDYHQ1EgugIpsieRIIYzaVRJPHGG28UQ4YMiaaQhlR+E0R1/wojNYyXC+AkaMeL8VBxCCUn27Zt6zs5JEH0YsVC6MM0QeOJ1Mti50FOiUQxSLSdjUWC6AynqJ5FghjVlRGy3jc0iTA5I9NEWnJDRndF4iPZxIkTRffu3QV+n/3WHCpUqEGMz/5ItKQginC0feONN6hRDHmlSRBDXgCXw5MgugTQ58uhBUKORDQUGoAFiI0I2CGAbATXXHONePLJJ6XJFyUc/Y6IJ0HkfowkAqhNjQAWEMWTTz5ZwPTQqlWrSMqaVKFIEOO9siSI0V8/JCRHwAoSGz/88MOiR48e0ReaEgaOAKoy4WECVY2QfL1x48aBykANYqBwczCnCOhEsVGjRpIotmvXzunlPM8FAiSILsDjpUQgBwRGjx4tg1YQjfr4448L1KtmIwJIjD98+HAxePBggfvf888/LxPYB90SSxCtys3p4fSm822uzrh+nx/0RojqeCCKMD3DFEOiGMwqkSAGgzNHIQJAAFVvoE1csmSJzJfYr18/UaJECYKTUgTeffdduR9QVWnYsGHiiiuuCMykbEKeSIJolelcRf+aCUDNYuEp3ZORn/bnn38ubrvtNhLFAFaKBDEAkDkEETAQePbZZwUinBG4ggAWpDJhSw8CKJF50003iaefflpcdtll4t577w21RCOQTxxBtCuijcnqJYJy1QCmZ5tGe6Ykiv6vDwmi/xh7OQJ+y6pUqeJll+wrJAQ2bdokBgwYIMaMGSPOOeccmQ6ndu3aIUnDYYNAYNu2bWLEiBHinnvuEZUrVxZPPPGEaNiwYRBDZx0jcQQxW7Fs9WPqxMSs+kLFFdXMUnymBtJMQfPAAw9IYmqOp5cRVH3rNZrxv0zjZ13ZhJ8AoogfT2DWoEED+ih6uN4kiB6C6aCrTBGJeolRq67MspsOhnN8ivqNFBsjHgAAIABJREFUyiaD4w55omMEli5dKs3NqLXbtWtXMWjQIFnTmS05CMDPEH6nIGGlSpWSFrIuXbqIokWLRmaSiSKIuRTLdkoQ9bqT2TSQZhFzRfJAEi+44AJZtg+EUhVA1wmhIpb6jzFuHHbjR2YHhSzI8uXLJTkElnXr1hW33367LM/Ilj8CJIj5Y5fPldkeajP1SYKYD+Lxueajjz6SWR1QqrRPnz4yxcmBBx4YnwlQUksEJk2aJAnh9u3b5T0rqlHsiSKI6onXSW1HpwRRJ3H6E7WT6/Wdkc2krXwkTYJoNz6/d4URIFH0bkeQIHqHpZOeMhFEPOygtBY05mj6gyQ+Q+oLND1ZPkjjF198If+vP2DqD6zwdVNN/73MVOPdDPyj/7aT1fXmHGCNm/XMmTPFJZdcItcblhO2+CAAH8PHHntM/Pvf/xa7d++WZL9Xr16RnkCiCKIfGkT9RzATQcxmjrEjiKZ5ySSIduNHeldROCJABBwjkE2DiM9hhWjatKnMg6b/JpgaRLPsJkgdAh4UwcxklTD7Ur9N+E0yf9+sHmgdT5gn5o0A8uJhTVFJA+S/d+/e0jpVvHjxvPvkhf4iAHcBfH9RCeXEE0+UmmA83BUrVszfgT3oPVEEUT0hm758Ok6qZqIy82aKajbrK3pJENWPr/JRtCKYmcb3YO3ZBREgAhFAwM4HUWkFleYOhKBNmzaFymrqpA6/ISjFpcigmhrOGTdunEwTZZJR9buD30GQT/0BVSeBJIQR2CiaCAhmgf/aqFGjBP6+6KKLxKWXXhqZ4IZooRW8NEhRg6j0Z555RmrzL774Yqn9j1vVnMQRRPyYzp8/X0ybNm2PXaF+aPEj6MREnAtBzGZC1j///vvvpblA/yG3MzFTgxj8lztNIzICNvzVzqZBhITKbGwGjOgE0Sr3q5qdemi2+03Dg6r5u2k+tOqm60wP4eEjmh4JsB/mzp0rU6NMmTJF+ieCKCLY4bDDDksPEBGYKfwJwTuwFrNmzZIPZJ07d5bkvXz58hGQMHcREkcQ1Y8pXnUCpn481Q+b1wQR41kFqaiACTzpqSAVEERERpsR0ejD9AciQcx9U1tdYZre9HMyPTh4M3rhXrD32rZtK/2J1J7Aj4lqubhKmPJlc3XQz/czwMEP3JLapxOCqLSMpn+1SRB1c7IVXm4IoupPz9TgxN87qesWtXmBoMAnFQQF5RaRKgVEESbo/fbbL2riJkIe+BLOmTNHYj516lRx0EEHSVKIyPMkEPREEkRF1h566KFCmzDXSiq5aBCtfjzxP2UmMgmpmQ4HsoEs6E/mNDF79xuSyUQWNFGCLHhI0CPbSRC9W+u49ZSNIKrcrpgXSrHhgUY108QMM3Em0mb3m5LNxGz30IUMAh07dowb5ImXV5k4QVw+/fRT6T5w6qmnygPEMUqpVOK2GPh+vfHGG+Ktt94Sb7/9tnTLuPDCC6XmNuhayX5jl1iC6Ddw7D9+CFjdiM3IdytXAauoUPxPvzmib1P7a5c/Dlrlm2++uSDdkRkNqmsQ1UODnovT7Ncu8jRTrs18ImDjt+LxkDgTQdT3I2ZjEkCsIypugESimVWkdB9D5YNoZ5Uwtex6kIquZcc42Vxq4oF8OqTE7xI0ijBFz549W2zevFm0atVKtGzZUu6npJEar1cVpRDxPcL3BlYfBAq1bt1anHLKKRLHJk2aeD1kZPojQYzMUlAQvxGwqrJj+qyaNz67qFAECxx66KHyxqxuwkr7i/eooWnlB4s54sZr5Qer5m8SRPxfkUIzKjVT5KmpLTJzbeYaAev3+qS1f7sgFeBRo0YNSfrUXjLT3ijihqob6hz9gQZ96IQwm1VCvxZ+iUiHo/aeafWgH2I8dyxSgsEsimPevHnip59+EvXr15dR8ngFYaxZs2Y8J+dSapBn1EJGXexFixaJxYsXy5rIzZs3l6Tw5JNPlq9paSSIaVlpztNS62FqAk2NjV1UKHKR4ccDN2VFMpUmBzfSZs2aWZreYF5euHChvMZOC2OlQdTNeErjhMoKdpGnVmZGq6ADFIVXJDdbBCy3EBEgAslDAIQR2kWQRRzr1q0T5cqVk2l0jj76aPmqjkqVKiUCgB07dgikn/nyyy9llLE61qxZI0qWLCkDTEAGoWUFccb/0thIENO46imeMzQwyo/LKqBDJ214ktQTCuuwjR49WvTs2VNqV5TJWGkNQTphirCqj6uTR6cE0TRBK7Mi5MkWeao0lrrsSiOUawRsircNp04EUoMAiNMnn3wiCRQCPUGiYGZFQ7ALKlZVr15dHocffnjB31Gr8IIax5B71apVYuXKlWL16tUy6TwIMczEaj6KCKPmdb169cRJJ52UmrXONlESxGwI8fNEIaCTQpA1ZSZWkzQJYqaoUEUE4ScI0oX++vbtK6699lpb8zKu0aPrTZMf5NBlNH0b8blTgpgt12auEbCJ2gicDBEgAo4RQIQ0tGwgi19//bXUMq5fv77g+Pnnn8Xee+8tCWPlypXFvvvuK8kkXvVj//33d62NQ+Tw77//Lo+NGzeKP/74Q76q/6FiCQghTOdlypQRBx98sJQJEcb4G7/5ILnQjuI9mz0CJIjcHalDQJmV9VRDVgQR/8sUFaoCA/BkClOzem+STtW3lW+iaeLGuTBDqzyZVgEMilQq+aySG8M/LFuuzVwjYFO3UWI6YQQknH322QJmNDYiEBQCcGsBaYTPniJvirTpr3/++aesQYz9iVd14P2WLVukuKVLl5ZEslSpUvLQ/wYRhQncJJ/qPUioIoNly5YNavqJHIcEMZHLykllQsDKsd+KIMIPJVNUqMpnaVa8sEszotKTKCKJMc2gE/xPJ256JCk+M3Nt2kWegiBmy7WZawQsd1U8ECBBjMc6UUoiEHUESBCjvkKUzxcE7FKLZEtzA2HM8ox69LJVoIeagJ1vohkdqggnroOcKpoU7+EvY1VKDeYfND3yNFuuzVwjYH1ZCHbqOQIkiJ5Dyg6JQCoRIEFM5bJz0nFBwMpHMS6yU85wECBBDAd3jkoEkoYACWLSVpTzSRQCJIiJWs5AJkOCGAjMHIQIJB4BEsTEL7G7CSIvFHzZHnvsMRn5xRYsAiSIweKdhNFIEJOwipwDEQgfARLE8Ncg8hIMGTJE3HfffeKpp54SHTp0iLy8YQqIlAuPPvqo9AUsVqyYGDBggMyXiEi8uLT/9//+n0AS7hEjRsRFZMqpIUCCyO1ABIiAFwiQIHqBYgr6ePnll0XXrl1Fv379xMCBA1MwY3dTRCqHhx9+OJZEkQTR3dqHfTUJYtgrwPGJQDIQIEFMxjoGMouvvvpKtGvXTpaRQwLpEiVKBDJunAeJI1EkQYzPjtu0aZPMCac3O4KIfHP4zhYpUiQ+E6SkRIAIhIYACWJo0MdzYGSpb9++vRQe6V2QoZ4tOwIgimPHjhX33nuvPDnKpmcSxOzrGZUzkJT4vPPOk5r9s846S4plEkQQQ7g9LFmyRDz33HNREZ1yEAEiEHEESBAjvkBRFO+vv/4S3bp1E3PmzBEzZsyQ9SvZnCGAm/W///3vQkSxR48esiRUVBoJYlRWwpkcKO94//33i+OPP14MGjRIVqFAJRVUrwAxRI1wEMkFCxZI7T8bESACRMAJAiSITlDiOZYIjBw5UvojPv300wxeyXGP6ERx165d4qabbhK9e/eOBFEkQcxxMUM+fcOGDTKoCPsIZRdRD/e7776TpchUWbPmzZuLd955J2RJOTwRIAJxQoAEMU6rFUFZZ82aJTp27MjglTzXBkTxiSeeEEOHDhXbtm2LBFEkQcxzMUO87MYbbxSPPPKIgHYfGkSQxd27d4u///5b+hzOnz+f2sMQ14dDE4E4IkCCGMdVi5jMevAK/OxQTJ0tNwR27twpxo0bFwmiSIKY29pF4WyYkA8++GBJDPWGPJowK1N7GIVVogxEIF4IkCDGa70iK60KXoEWDH6JDF7Jb6msiGKvXr1E+fLl8+swj6tIEPMALQKX9OnTR4wZM0ZqEVWD9vDdd98VjRo1ioCEFIEIEIE4IUCCGKfVirisuDFdd911Yvr06QxecblWIIrPPPOMQJJyaIeuv/56ccMNNwRCFEkQXS5eSJevX79eHHrooQVaRGgP4XsI8zIbESACRCBXBEgQc0WM52dFYPTo0aJ///4yWrdTp05Zz+cJ9gjAh2zChAmBEkUSxPjuSAQ6QYuIBwxqD+O7jpScCEQBARLEKKxCAmVA8Arys8E8igAMaDPY8kcgSKJIgpj/OoV95Q8//CCqVasmtYgnn3yymDt3btgicXwiQARiigAJYkwXLg5iq+CV4447TkycOJHBKx4sGoji888/LwYPHizWrVvni+mZBNGDhQqxi6uvvlpq7xctWiQaN24coiQcmggQgTgjQIIY59WLgewIXrnooosEXqdOnSq1G2zuEUAKk8mTJxciighS2H///V13ToLoGsJAOkCOwx07dgikStIPaBFRsWf48OGiZMmSolSpUpZHIEJyECJABGKLAAlibJcuPoJD63XttdfK0nwIYGnatGl8hI+4pDpR/P7778U111wj/T/dEEUSRP8Xfc2aNQIJrn/++Wd54O/ffvtN/Pjjj/LvLVu2yMOKAOL/XjVEx1uRSKSqwh464IADxIEHHigqVqwo/65UqZJ8xXHQQQd5JQb7IQJEIIIIkCBGcFGSKhKCV5DQ97HHHmPwiseLDKL48ssvizvvvFN88803rogiCWL+iwPy9tlnn4kvvvhCrF69uoDw6UQQmj+9ISWUSb5Azqw0f5k0gup8lRJp69atUrNoRTJNraP5HumqED2vSKx6hSVAb4pE6sQR+RiPOuooccwxx8iDjQgQgXgiQIIYz3WLrdQIXoHJuXv37gxe8WkVp02b5oookiA6W5iPPvpIfPnll5IM4vj8888FtLhohxxyiCRJOvFTJEpp5PAe5fDi1n766Sep9QSBxN8miUS6HeCxefNmObW6deuK2rVrS7IIf+Q6deqIGjVqxG3alJcIpA4BEsTULXn4E4ZmpV27dvIGihQu5cqVC1+oBEqQL1EkQfy/zQDN7Ndff11AAhUZhJYWrhMgeSA+Rx99dIHG7NhjjxVly5ZN4I7KbUrwhVR4qdelS5cKaDbLlCkjiaLSMuIVuEH7yEYEiEA0ECBBjMY6pE6KTZs2yTQ4a9euFa+//jqDV3zcAcAXX3Rou+CjiITb0GLZtTQTRJC+Dz74QMyZM0ceCxcuFDAJw2xrEkFow9z4evq45JHt+p9//hGrVq3agzguX75cVoCBub1Vq1YFR/Xq1SM7FwpGBJKOAAli0lc4wvNj8Eqwi6OI4qeffiquuuoqccstt1gSxTQRRGgIP/744wJCiJrFMI2CQCOPYMuWLeUrtF1s/iEAcvj+++/LvI04kKIHfpCoDKMTRrxnIwJEIBgESBCDwZmjZEAAwSv9+vUT9913n+jZsyex8hmBbEQxyQQRGiwQZJAQaAhRhu73338vRAhBCuEzxxYeAiCMixcvLiCMqCcNwnj44YdLwti6dWv5yprv4a0RR04+AiSIyV/jWMwQN4D27duL888/X4waNUoULVo0FnLHWUgQJPwAQHOjaxSTSBA//PBDmax90qRJMsG4riEkIYz+LrYjjCeeeKLMiHDxxRcz7U70l5ESxgwBEsSYLViSxVXBK4gAnTJlCoNXAlrsBQsWSHMzfO9AFBGUUbNmTTFixIiAJPBnGASSgBQ+++yzck6oKgLy27ZtWxkQwRZvBKD9femll8SLL74oo8ehUbzkkkvkQ6ZK9RPvGVJ6IhAuAiSI4eLP0Q0EGLwS3pZQRBHaXETlvvbaazJdS5wazJCoMINcmzBRQjsIUnjuuedSwxSnhcxRVrgNoFITHiy//fZbueY9evSQ689GBIhAfgiQIOaHG6/yEQEErwwcOFCMGzdOmgTbtGnj42js2kQAQRnfffedQD67yy+/XNx6662RJ4rIQYj6w9AWIsUMNKG9evWSFUCsGjSISL1i1RBZX6VKlZw2BrRYHTt2zOmaXE/GGE2aNJFr8d5774lGjRrl2kXW863mgXQ1bsfMhDeEgm8oGog8tIJmu/7668WDDz6YVX6c8Mknn4iHH35YPPfcc6Jq1aoy52q3bt1s94KjTnkSEUghAiSIKVz0uEwZN3toAR544AEGrwS4aMoH8dJLL5XkEL6KUSWKMIsPGDBAzJ49W7Ro0UKWdATJKFasWEbEQFhAGpDyR28gIaj2owiLE9jt+nJyrdNz4j6GU/mxdlhHc11w/RFHHCGQ29NpQ+lCPGQ++uij8mHnyiuvFLfddpvMXclGBIhAdgRIELNjxDNCRIDBK8GDbwapgIRFjShCY3jzzTdLMziSrqPEYP369R2DlYmw7LXXXrJuuFONoFPy41g4ixPjPoZT+e0IIiDJdV0UjLBIwBd18ODBMu8qcoHC55Y5LN3sSF6bBgRIENOwyjGfox68ApNzhQoVYj6jaItvF8UMonjXXXfJxObQKEJzh7QjQTbkKOzbt6/0MTz99NPlTT8XYqhkdUoQQUp0cy4ivhHsojSMuun0nHPOKaThUqZZaMChlVTN1E6qPnUcdYKqj4E5v/HGG3uYmPVzkNAbBFpvilwhgEM13ZTuZB46Dtn6M/eEFwQR2l0EpuSiRdTlAFGEVQJ7BqUChw8fLs3PbESACFgjQILInRELBBC80qVLF5nDDgSlVq1asZA7jkJmS3MD8gFT3YwZM0Tnzp3FHXfcEQhRfPXVV6XLQYkSJcQTTzwho1bzbXaEBabNhx56qIAAZiOIGN+uL0UQcY4iY+gf9cgVgVPn6ITQlEEf44ILLtjDHxDjw09X+ejhdfz48YVIIuahE0dTDifzMAlitv70tfGCIMI/Ejcsk/zmugd27twpySG0zg0aNBBPPvmkYMWWXFHk+WlAgAQxDauckDlC8wLTEIIREK3I4BV/FjYbQVSj5ksUQe66du0qihQp4mgCWHdoDRF4gGAF3NhLly7t6Fq7kzIFTegaPi8IIjSIuk9dNlMpiBA0fbocimCZBNHUaKr5mmOY762uy0Z0rTSIygxvJ4eSJxPeOj6ZTMxWuLjZBCtXrpQaRMiOCGhoZ9mIABH4PwRIELkbYoeACl4ZNmyY6NOnT+zkj7rATgmiThSHDBkib7LIQ5dNo4hgAbgJDB06NCsUW7dulWQJpdegsWzatGnWa5yc4FSj5QVBNCOO7UgQxtKbE4Kogmqs5qwTL6/n4aS/qGoQTaxgcsaNEHjx98TJt4fnpAUBEsS0rHTC5qmCV5D0GOY0mB3ZvEEgV4KoRl2+fLkkh9mIIsopjhkzRsBkfMYZZ9gKjYon0Ops375dvPXWW6JatWreTPA/vYRJEM2xFTFUhC6Tds/UIFqZk61AckLoctUgZvLNNGVwincmDSK0sPBHztcHMdPmwZ5FRRZE7sNCwUpOnn3V2FGMESBBjPHipV103CxAZmBunD59OoNXPNoQ+RJEO6IIt4CjjjqqQLqrr75a3oTLlSsn/ckOPfTQPSRHaTWQCmgQP/74Y89z2DklLKZpNpP510zNYuVfiInqZM3Kry4fE3O23I1JIIjZTPNutz8eQvDAiYAi1IVnIwJpR4AEMe07IObzB4GAWZPBK94tpFuCqBNFmJGRYgR94scGRBFpRqBBRK5CBDpAE2XmLQTZQqTykiVLRO3atb2b3P96ckoQzQAQ5UtnZf61I4gYUp1vBocoMqgInlVgC66380FUn+k5ApUG0vQZzKbxi7IGMZ88iPlsGgQogSAi9ycSxrMRgTQjQIKY5tVPyNz14JUJEyaIDh06JGRm4UzDK4KopF+1apUkh4ooggwiXRHSjsA1ABVPcGPWz0ctaESrn3rqqb6A4JQg6oQNgiDa2AwgUX6AZnoZqzQ3ViloVNSymijIIiqX6JHNagwQbJjyTb9GMwjE/NyJBjHbPHIlnPrCZQpSwXmqby8qqbjdMEigDnmWLl3qtiteTwRijQAJYqyXj8LrCCB45YorrpApWFCqjy0/BLwmiEoK1MiFjyJKoKHt3r1bvoK8wAcMeQTRYIL+9ddfZU3lODcvStTFef5xlR0+rwcccIDMlHDaaafFdRqUmwi4RoAE0TWE7CBKCCB4BRoe5Mhj8Ep+K+MXQfzyyy+ldvf7778X8DFUDelu4EeK2sjly5eXdZBxc0aFlDg3EsT4rh5qecPHGUnJ2YhAWhEgQUzryid43oh+PeussyTpgJmucuXKCZ6t91PzgyDC5xApRKA13LVr1x5ClyxZUsCsPGjQIFniDloc/C/OjQQxvqsH7fXFF18s3SDM9EPxnRUlJwK5IUCCmBtePDsmCKjgFQQ5IH9evXr1YiJ5+GJ6SRBRAQdl+WBCdtJatGghkMAYWkY2IhAWAh9++KEs4bhhwwZpbmYjAmlEgAQxjauekjmr4JWRI0fKAAkGrzhbeC8J4jfffCPLzDltL7/8snjzzTcFzNFsRCAsBPCQUqNGDbFmzRpRtWrVsMTguEQgVARIEEOFn4MHgQCCV+BThHx8DF7JjriXBDH7aIXPgM8XiDxMzGxEICwEZs6cKYOmuA/DWgGOGwUESBCjsAqUwXcEkGwZfokIXhk7dqzYe++9fR8zrgOESRAR6YycfkiN42XllLiuBeUOBwGkXXr88cdlInc2IpBWBEgQ07ryKZy3Cl7B1OGXyOAV600QJkGEWwASYyNdUb9+/VK4SznlKCDQoEEDmYPz7rvvjoI4lIEIhIIACWIosHPQsBBg8Ep25MMkiJAO6YlQzQJRwGXKlMkuMM8gAh4igBrh+A7Ad5YBKh4Cy65ihwAJYuyWjAK7RQBaKmgGUAYO6Vc6derktstEXR82QUQanObNm8sgAfiPshGBoBD47bffxPHHHy969uwp/vWvfwU1LMchApFEgAQxkstCoYJAABGzqOPcu3dvSRaZ7+y/qIdNECED0twcffTRsvLKTTfdFMR2CHUMfe+pcn6qPjMEc1IqTy9nZ1XSz0kfGCtbP6EC5ePgyHnYsmVLOcL8+fP5e+Aj1uw6HgiQIMZjnSilTwio4BX4HCEVDoNXokEQsdyopoKqOI888ois15zUBkLWpk0bgVrIigziNReCaPaBvmCq14MsnBBEJ/0kcR0QrYwHo0WLFolly5aJgw46KInT5JyIQE4IkCDmBBdPTiICDF4pvKpR0CAqiR577DFJDqFFvOeeexK3/d5//33RuHFjAbcH1V588UVJjJ0SRKs+FNGENhKVadT79957TzRq1Ei+N69z2k/SFgFm5dNPP12sX79evPbaa6Ju3bpJmyLnQwTyQoAEMS/YeFHSEEDwypVXXinmzJkjy/M1bdo0aVN0PJ8oEUQIjTVp3769rGwxYcKERCUuttL0qRJ9Tgki+kBQj1V74IEHxA033OCIIDrtx/FGisGJs2bNEl27dhUVK1aUCdoPPPDAGEhNEYlAMAiQIAaDM0chArFBIGoEEcCtXr1adO7cWXz22Wdi+PDhkswnoXlFEE1zshU22UzMVrIkAWOrOWzevFlcf/314sknn5Q1wuGDXKpUqaROl/MiAnkhQIKYF2y8iAgkF4EoEkSgDTMsyiaiIk7Dhg0ToU3MxcSsm4uVGRqYqD50jaMdQbTrA+c77SfuO19pDUuUKCEmTZpUYHKP+7woPxHwGgESRK8RZX9EIOYIRJUgKlgR4YwfrsmTJ4suXbpIwnjIIYfEFnUzMERFEeuEz+4c5buIz1GBZtq0aRIHRfZ0n8NsfeA6J/3EFWgQQ/ixIjANe+baa68VJUuWjOt0KDcR8B0BEkTfIeYAYSFg3hB1OZS/FW6wyudLv5mGJXMUxo06QVQYff311zJX3UsvvSQuuOACceutt4o6depEAcKcZdBTy8D0iVJvOkFUe1R1rFLh6MEteh84z9zPTvpQJPGLL74omEOcvxfAB9pWEMPly5dLf8z+/fuLffbZJ+c14gVEIG0IkCCmbcVTNF/dDGdOGzfTbt26FTjwpwiWrFONC0FUE/nggw9E3759xbx580SLFi2kfyKigGFCjGNLi6nXz7XZsGGDrLmOesrIUnDVVVeJ22+/XQajsBEBIuAMARJEZzjxrJgiAMd83e8K0zBvwFYaRKtkwfgfEjfraUPMSFNdoxNTyCKRKDsf7D766CMZdPDUU0/JJMeXX365uPTSS8UJJ5yQT3ehXUOCmD/0SH6PSPepU6fKSjx4WLjssstEpUqV8u+UVxKBlCJAgpjShU/LtGFSQgSs8s3CvGFeRqUE9T+TINolC0Yy40MPPVRqHdVNXJFPvB82bFihceKKcdw0iCbOO3bskAQB2qPZs2fLiizwVQRZjEMCZBLE3L45S5YskaQQASdIeA3tMawDKNfIRgSIQP4IkCDmjx2vjAECdtpBXROon4Mpde/evVAFCvwPpBFl+RYvXixJoCKZMGmCMOJo1qxZgXYxBtDYihh3gqhPDOZFBLOAMC5YsEBWLDnvvPNEq1atxFFHHRXnZUq17AsXLhRvv/22JIZIcH3OOefI48wzz2Q1pFTvDE7eSwRIEL1Ek31FEoFzzz1XVKtWTZI6q7QiOkF89913bZMOjx49WvTs2VOmW0GfN998c4HWEARy5syZokqVKpHEIBehkkQQ9XnDLw0a37feekv6K5YuXVq0bt1akkW8Hn744bnAxHMDRABaQiRMh0YYRB8mY5D9du3aye8iGxEgAt4jQILoPabsMWII6KQQmj5lJlZimgQxU9JhRQSRVgVEEf0hQAIpM3QzdsQgyEmcpBJEHYTdu3eLTz/9VBIOEA+4HFSoUKEQYaxcuXJOuPFkbxDA9woJ0RUhxNqUK1dOEnkcIIZxTmvkDUrshQj4jwAJov8Yc4QIIKACTMwatxDNNDGjNq5d0mFVtkz5Nar3JumMwJQTwkHQAAAgAElEQVTzFiENBNEE5++//xaIhlakBCZMkBClYQQxOeCAA/LGlBdmRmDZsmUF2EO7W6xYsQJCCOyR45GNCBCBYBEgQQwWb44WEgIq7yH8lExNn1WQil3SYSRpBslErjr0qfrNVsUipGnnNWwaCaIJ1M6dO6U7gtIwLlq0SKZIqV27tqhVq1bBK/6mptHZNgMJ/+abb8RXX30lD5BC9Xfx4sVFy5YtC0ghcGYjAkQgXARIEMPFn6MHiIBVyhtTg9ioUSMpkV3SYUUm9ehlq6CWAKfl+VAkiHtCCsKoyI0iNuq1SJEihUijIpFIswJNWNrali1b9iCAwAr4wYyvCLZOtmkyTtsu4XzjgAAJYhxWiTISgQARIEHMDWxoj3XSqP5GUAy0jjBNI6hCHXbv991339wGDuhs+Gv+/PPPAvNRr/jbfK8+A0FEwI+pbUWVm/LlywckNYchAkTALQIkiG4R5PVEIGEIkCB6s6Dbtm2T/q1Iw6Jef/zxx4K/kYIHx6ZNmwoGhLkaBHL//fcXpUqV2uNA7WD8HxHY6m+787Zu3SrzAuJAbkj1t3oP+fT/6X/jMxA+HL/++muBfCC5Bx98sDSr40DUPnJL6v+jNtCb/cNeiEDYCJAghr0CHD/RCKjUOHGaJAlisKuliCTIIsgkXv/44w/x559/2hI4mLzxuUn8QPI2b94sJwDiaEcidYJpdU6ZMmUkUQUJVOSPxC/YfcHRiEDYCJAghr0CHD+xCMyaNUsmZUaC7REjRsSmNjAJYry3JPI8ImH0X3/9Fe+JUHoiQARCRYAEMVT4OXjSEUCUJpL5QhMzffp06aQf9UaCGPUVyiwfHkyw56BlZCMCRIAI5IsACWK+yPE6IuAQAfhwXXTRRTKK8/XXX5dRnFFuJIhRXp3ssqEE3emnny527dqV/WSeQQSIABGwQYAEkVuDCASAAHLAodrKxIkTZf3YDh06BDBqfkOQIOaHW1SuQu7G0047jQQxKgtCOYhATBEgQYzpwlHseCKAoJXevXuLQYMGiYEDB0ZyEiSIkVwWx0KhGgzK0eGhhI0IEAEikC8CJIj5IsfriECeCKjglbPPPlug7nOJEiXy7Mmfy0gQ/cE1qF5JEINCmuMQgWQjQIKY7PXl7CKKAIJXzj33XJnvDlVZolSujQQxopvGoVhz586VNaSR4JqNCBABIpAvAiSI+SLH64iASwSQIBlpcJYuXSpmzJgh6tWr57JHby4nQfQGx7B6mTdvnqxr/M8//4QlAsclAkQgAQiQICZgETmF+CKgglcQuIIAligEr5Agxnc/QfL58+eLk08+mQQx3stI6YlA6AiQIIa+BBSACAgRpeAVEsR470gSxHivH6UnAlFBgAQxKitBOVKPAIJXkC+xbdu2YuzYsWLvvfcOBRMSxFBg92zQd955R7Ro0UL6IO61116e9cuOiAARSBcCJIjpWm/ONuIIrF69WlbBQK1c+CWGEbxCghjxTZJFvAULFoiTTjqJBDHey0jpiUDoCJAghr4EFIAIFEYg7OAVEsR478iFCxeK5s2byzyIRYoUifdkKD0RIAKhIUCCGBr0HJgI2COgB6/A3NypU6fA4CJBDAxqXwZ69913RbNmzWQllaJFi/oyBjslAkQg+QiQICZ/jTnDGCOA4JXrrrtO3HDDDWLo0KGB+JSRIMZ4w/xHdBLEeK8fpScCUUGABDEqK0E5iIANArjht2/fXpoNkQrH7+AVEsR4b8VFixaJpk2bip07d4pixYrFezKUnggQgdAQIEEMDXoOTAScIxBk8AoJovN1ieKZ7733nmjSpAkJYhQXhzIRgRghQIIYo8WiqOlGQA9eQXk+aIn8aCSIfqDKPokAESAC8UKABDFe60VpU44AglcGDhwoHnzwQTF+/HhfgldIEFO+yTh9IkAEiMB/ECBB5DYgAjFE4NlnnxXdunXzJXiFBDGGG4IiEwEiQAQ8RoAE0WNA2R0RCAoBPXgFtZzLlSvnydAkiJ7AGFonP/zwg6hSpUpo43NgIkAEkoEACWIy1pGzSCkCCF4Bodu2bZt4/fXXRbVq1VwjQYLoGkJXHWQqj/fPP/9k7PvYY48t0Cy7EsLi4vfff180btxYZJPB63HZHxEgAuEgQIIYDu4clQh4hsDWrVvFJZdcIlBibfr06a6DV0gQPVuavDoCQUQQUseOHXO+ngQxZ8h4AREgAjYIkCByaxCBBCAArc4tt9ziSfAKCWK4GyITQTz33HPFN998Iz7//HMpJBKoP/TQQ1Krh89eeukl+f/rr79e7gU0kMYvvvhC/n3MMccUXItxHnjgAXHjjTcWTHjt2rWFzNO6NlOdi7HQt34dUus0atQoXOA4OhEgAp4iQILoKZzsjAiEi4AevDJkyJC8Sq2RIIa7htk0iIrYIc0RTL46OTM1iHjfpk2bArKoot9BMNGPThhBNmfNmlVAIM2+FFnEeLqp+cUXXxTnn38+Tc/hbhuOTgQ8R4AE0XNI2SERCBcBBK/ghl2nTh0xZcqUnINXSBDDXT87H0SlFVTaO5A7nfwpbaGKbofPYPfu3QsIn5oViN+4ceMkydNN2bqPoZW/oSKCuIaEMNw9wtGJQBAIkCAGgTLHIAIBI7Bu3Tpx1lln5RW8QoIY8GIZw2XTICoiCLOxGTCia/1MM7A+jCJ5uvZRJ4W4dv78+WLatGkFl+mf62brfP0lw0WZoxMBIpANARLEbAjxcyIQUwT04JVJkyZJbZOTRoLoBCX/znFCEJWW0fQZNAkikqkrf0VTYvSRL0FUfSkfSLw3ZfEPIfZMBIhAEAiQIAaBMscgAiEhoIJXhg8fLkaNGiV69uyZVRISxKwQ+XpCNoIIUob0RmhIa6SCUfBeJ4hK42dH3DIRxEwmZqs0Nxj3jjvuyCvy2lcw2TkRIAJ5I0CCmDd0vJAIxAcBBK9ceeWVokuXLpIoFi1a1FZ4EsRw1zUTQUQS7EMOOURq/tDgR6gTQEQyt2jRQkY3K8J4xBFHFJiKFfFTgSZ2GkR1re7jqLSWejQzztNlYiRzuHuHoxMBLxEgQfQSTfZFBCKMwMcffyz9EhG8ApNzhQoVLKUlQQx3ETMlyq5Ro4bUEirfQDPtjfI7POeccwrO0f0FMTNFCjNpEBUC+rU6MdRNyziXfojh7hmOTgT8QIAE0Q9U2ScRiCgCKnhl48aNsvJKrVq19pCUBDGii0exiAARIAIBIkCCGCDYHIoIRAEBFbwyZ84cmQbHDF4hQYzCKlEGIkAEiEC4CJAghos/RycCoSCAQIO7775bDBo0SIwcObJQ8AoJYihLwkGJABEgApFCgAQxUstBYYhAsAi8/PLLso4zgldGjBghSpQoIUgQg12DKIzWunVrcdJJJwncENiIABEgAkCABJH7gAikHAEVvIKUKdOnTxc9evQQVatWlYSRLR0ItGrVSpx88slSo8xGBIgAESBB5B4gAkRAIqAHr9SsWVPUrl2bBDFFe6Nly5YCJBG5DNmIABEgAiSI3ANEgAgUIIDgFeRKnDx5smjbtq145ZVXiE4CEdiyZYvYZ599Cs0M2sNTTjlF3H777YX+b3VuAiHhlIgAEbBAgCZmbgsiQAQKIXD00UeLZcuWicGDB4uBAwcSnYQhgB/9X375Rdx6663iwAMPlLNDcu1TTz1V3HbbbfL9J598Is3N1113ndQsshEBIpA+BEgQ07fmnDERyIgAglR27twpZs+eLZCIGfV8EbzClgwEQA7hY7pr1y4ZvQ6i2LFjR3H66aeLM844Q5qZZ8yYIZo1ayYWLFiQjElzFkSACOSMAAlizpDxAiKQbARUFPNll10mK6+o4BW7yivJRiOZsxswYIC49957RZEiReSBtS1XrpxYsWKFfL97925JDkES2YgAEUgnAiSI6Vx3zpoI2CKgp7lB8Mr5558vg1imTp0q6tWrR+QSgMCGDRvEoYceKnbs2CFng9rcyI0JYogSfM2bNxfz589PwEw5BSJABPJFgAQxX+R4HRFIKAJmHsS//vpLdOvWTdb2nThxoujQoUNCZ56uaaGe8iOPPCLdCcym6jWnCxHOlggQAR0BEkTuByJABAohYJcoe8iQITLK9c4772TwSgL2zPr168Vhhx1WiCBCkwjt4dy5cxMwQ06BCBABNwiQILpBj9cSgQQikKmSiqq8guCVsWPHir333juBCKRnSn369BGjR48uRBKpPUzP+nOmRCATAiSI3B9EgAg40iCqk1B5BSRyv/32k9GulStXJoIxRUDXIhYrVkxWU5k1a1ZMZ0OxiQAR8BIBEkQv0WRfRCABCDipxfzrr7+K9u3bi9WrV0uSyOCV+C78NddcI8aMGSP+/vtv8eGHH4oTTjghvpOh5ESACHiGAAmiZ1CyIyKQDAScEETMVA9egbm5U6dOyQAgZbNYs2aNqFGjhkyU/dprr6Vs9pwuESACdgiQIHJvEAEiUAgBpwRRXYTgFVTg6N+/vxg6dKhMk8IWTQT++OMPmdpm+/bthY5hw4bJnJfHHXecKFmypChVqlShwyzNF83ZUSoiQAS8RIAE0Us02RcRSAACuRJETBnBK126dJFl2ZAKh8Er3m4EVD/5+eef5YEchubf+PzPP/+0JH+KDHohUZkyZSRxtCKRSLR9wAEHyKNSpUqWf5ctW9YLMdgHESACASBAghgAyByCCMQJgXwIIub31VdfiXbt2jF4JcfF/uabb8QXX3whli5dKhOSW5FAvcvy5csXEDBFxFBTuXTp0nto/uzInKkhBPFD27RpU4Fm0UrTaGoe9ffQTuqyKyKLc1TDuFYkEul2jjnmGHH88ceL/fffP0cEeToRIAJ+IECC6Aeq7JMIxBiBfAkipqwHr7zwwguiadOmMUbCW9HXrl0rSeBnn31WQAg///xzScjQ6tevLyPCdQ0cCCDIX8WKFeX/q1Sp4q1QAfS2ZcuWAq2nIo3m67fffitAlNEw52OPPVYcffTRkjTiqFu3rlAkNgCROQQRIAL/QYAEkduACBCBQgi4IYjoSAWvgCCOHz8+dcErv//+ewEJhGZQHRs3bhTFixcXRx11VAHxUQSoevXqqffdhMbyyy+/LMBL/Y0gGvi1ojQgiKPCDK+1a9cWJUqU4DeYCBABHxAgQfQBVHZJBOKMgFuCqOY+cuRIgXJuffv2TXTwCrRhs2fPFnPmzJHHihUrRJEiRWRksE5moBEDOUS+QTbnCGzevLmANIJsK+L4008/ScLdsGFD6fuKAxprmLHZiAARcI8ACaJ7DNkDEUgUAl4RRICCpMvnnXeevHlPmDBBIJAh7g1mdEUG8bps2TJJ+k488UTRsmVLmWwaBwN1/F1paBZRElAdq1atksEzjRs3LiCM+JsaRn/Xgb0nFwESxOSuLWdGBPJCwEuCCAFU8Ao0O6+//rqoVq1aXnKFdRFMxooQgoxAi4WaxYoQghS2aNGChDCsBfrfuCCM8+bNKyCMK1eulIE70CoqDWODBg2k1pGNCBCB7AiQIGbHiGcQgVQh4DVBBHjQul100UUCZfqmT58e+eAVmDVffPFFmbIH5BA+cCSE8foaICgIa6c0jCCMiADH/kZSd5BGuAKwEQEiYI0ACSJ3BhEgAoUQ8IMgYgCUcrv22mtl4EpUg1cmT54sJk2aJF566SVRoUIFcc4558jjlFNOkdootvgiAML4xhtvSOI/c+ZMcfDBB8uHFhzwY2QjAkSgMAIkiNwRRIAIBEIQ1SCjR4+WRBHBK6jCAnNtmA2pZx599FHx7LPPCiRyPvfcc+UBszE1TGGujH9jI9/jq6++KqZMmSLJIiKke/ToIbp27co8jP7Bzp5jhgAJYswWjOISAb8R8EuDqMutglegucFNOujgFeTme+6558Rjjz0mPvzwQ3HmmWdK0nraaaf5DS/7jxgCqECDAKpRo0bJXIx4OLjyyiulCZplIyO2WBQnUARIEAOFm4MRgegjEARBBAoIXsHNGC2o4BUQwwcffFDcf//9UnN5xRVXiN69e4uqVatGf2Eooe8IwGcR6ZngJ1unTh1x5513ShcDNiKQRgRIENO46pwzEciAQFAEESLA1Ic0OAhege9fmzZtfFmbbdu2SQ3RvffeK7VC/fr1E9dccw0jj31BO/6dImUOyOHTTz8t6tWrJwYPHizatm0b/4lxBkQgBwRIEHMAi6cSgTQgECRBBJ4qeAXmXpC4nj172sKMWr8oOZdLg1aoS5cuApU64PcIUzJzFOaCYHrPhcn5rrvuEs8884wMVHr88cfFIYcckl5AOPNUIUCCmKrl5mSJQHYEgiaISiIVvIJgARBFq+AVmKRRws9JNRKUtuvTp48MPgHpvOeee2QQChsRyBUB1Mzu1q2bWL58uRg2bJjo1asX/RNzBZHnxw4BEsTYLRkFJgL+IhAWQcSsELyCtCMw68HkjFQzqm3fvl3ss88+0ux38cUXZwQByaxPP/10mfcOAQj169f3FzT2nngE/vnnH/ngMnDgQFkpBymRqIlO/LKneoIkiKlefk6eCOyJQJgEEdKsXr1atGvXToAQInilVq1aUsj58+fLGzOCB1CP166BZHbo0EFGJsM0yFJr3OVeIvD111/L/YmHlddee01UqVLFy+7ZFxGIDAIkiJFZCgpCBKKBQNgEESio4JXFixfLNDgIXkHORPxg7dy5UyxYsEA0a9ZsD8AQoYwAlEGDBolbb701GoBSisQhAPeF9u3bixUrVog333xT1K1bN3Fz5ISIAAki9wARIAKFEIgCQYRAZvDK1KlTpQkavolnnXWWmDZtWiG5YUpGomP4iA0YMICrSgR8RQBBT82bNxfffvut1GijMgsbEUgSAiSISVpNzoUIeIBAVAiimgqim5G4GIEpu3btkv9GqhqkIjnssMPk+++//17Url1bmpYRlBJUO/bYYwX8He0a/NbQEFyD8n1mu/7662VeRrt2ww03SFKMIAm9/fDDDzKaFjn6TKKMa2CmN/9vdf17770nGjVqVPARytB17NhxD3Hs5Fcndu/eXYwbN06Y/QW1DmGN88svv4gGDRrIfYiaz2xEIEkIkCAmaTU5FyLgAQJRIoggRw8//LB45ZVXRMmSJWWqGjT4FSKP4QMPPCDfX3LJJWLdunXirbfeEsWLF/cABWddgCAiuhWkLFNTpfvM83D9EUccYUvm3n//fdG4cWOBOsK6rxtI5Y033iiHVCRUje9UJlNep9fZyeQMseSdBTMzgqCeeuopJtVO3vKmekYkiKlefk6eCOyJQNgEET6GEydOFPfdd5803SEYABVQzFaqVCnx008/ic2bN8taushZd/jhhwe6pE5JlR1BhLDQhiJ1j5Xmzu5zjHvHHXdIn0y8qmuVZjEfTZ7TuZAg7rnFkCvxjTfeEO+8806g+4+DEQE/ESBB9BNd9k0EYohA2AQRAShIIYIIZvh3FSlSRKK4e/fuQmhCiwgSuWbNGvHuu+/KI+jmlFRlIojQBiJC284kjGurVatWYIpWJBBaxeHDh8spKzM1TMT4UYdJWhE5HRNFRE0iqZvKrczWeh9WBNGKmCrie/755xdcDo1v06ZNpVZUNSsyq8tzzDHH7GFit5qbqUkNci9gLfCQ8tFHH4njjz8+yKE5FhHwDQESRN+gZcdEIJ4IhE0QddQQLQqtzLx586SGZunSpfJj5J/7888/ReXKlWWuRESUQosTdPOCIOqkzkp+k0Dq781rlQkbFWPgo6hrJvHZQw89JE3SVoTO6VxyIYiYjyJukBVkUSd8Vj6WkANR64r04nX8+PEFJNFKdid+l37vjSOPPFIGSSFPIhsRSAICJIhJWEXOgQh4iECUCKI5LZiaFy5cKAMCcCxZskSaoEF8LrvsMg9RcNZVpiAVaMsUYcukQVTEyU4DpgiZHvDSqVMnaVbWtYnwUcxkrtbHCYog6hhYjWnO3ZyrWgV9XuqcfMzozlY1v7POOOMM6U8Kn1k2IpAEBEgQk7CKnAMR8BCBKBNEc5p//fWXTC+CSGfIHXRzqnXLRhCVWdhOfhAkECJoBXHoQSvKH7Fq1aqWAS24Vm9BahB1DaYTgqgH35hY6GRTaUPVOWGal5UMIO14WBkzZkzQ25DjEQFfECBB9AVWdkoE4otAnAgiUG7YsKE477zzQsl96AVBdGIexTnwcUMz/RWVlhKf658pYqiIla6dC0qDmA9B1M3J2b5Fah5RIIpIdwMTev/+/bOJzc+JQCwQIEGMxTJRSCIQHAJxI4hIcVO6dGnx+OOPBwfS/0bygiBmi2LGUDDFqvyOLVq0KJRWR/khwrypPrPyawzDxJwrQXQTIe0ERz83SNmyZWWdcAT5sBGBJCBAgpiEVeQciICHCMSNID733HOid+/e0uyK1DdBNrcEMVseRDUXXVNm5kTUP1N+eYoMqnPN69EvTNW6H5/TueQSpJIrQYRcJiamz6GVD6IbYunFfkHEPbTYSLsEoshGBJKAAAliElaRcyACHiIQN4KI9Dcwr4IkBl1iL1slFUXA8q2koi9rJjKJz9D0iiumnx7IoopsbtKkyR4EUfn/WaWV0eXwmyAqkqhXqLGq+KKnz8E1JnH28CuRtSvUYj7llFMyVsXJ2glPIAIRQ4AEMWILQnGIQNgIxI0gAq9XX31VXHDBBVIjpshS2Dhy/HQggNrfI0aMEMuWLRP77rtvOibNWaYCARLEVCwzJ0kEnCMQR4KI2UGDOH36dPHZZ5+J8uXLO58wzyQCeSLw9ttvi7Zt24o5c+aI5s2b59kLLyMC0USABDGa60KpiEBoCMSVICLlzYknniiKFSsmq7AcdNBBoWHIgZOPAOqEd+jQQdx0003izjvvTP6EOcPUIUCCmLol54SJQGYE4koQMSsECZx22mnit99+E7iBH3XUUVxuIuA5AogoR9UUaK2RRsjMNen5gOyQCISAAAliCKBzSCIQZQTiTBCB69atW2XS7EWLFon7779fdO/ePcpwU7YYIbB582bRp08fMWHCBDF69GjRo0ePGElPUYlAbgiQIOaGF88mAolHIO4EEQuEyOaRI0eKW265RTRq1Eje0FFphI0I5IsANNLQGqIO+DPPPCP3FRsRSDICJIhJXl3OjQjkgUASCKKa9jfffCM6d+4sI0ypTcxjM/ASoWsNr7vuOnH33XcHnm+Ty0AEwkCABDEM1DkmEYgwAkkiiIAZdXqRTPu2224T5cqVk7kSkRKnSJEiEV4FihY2Ahs3bhQPPfSQGDVqlKxxfd9994k6deqELRbHJwKBIUCCGBjUHIgIxAOBpBFEhfrOnTvFY489JgYPHizNhH379hXdunUTJUuWjMfCUMpAEFi3bp1AbkOUbgQhhKsCCCIbEUgbAiSIaVtxzpcIZEEgqQRRTXvbtm1SM3TPPffIlDjwK+vVq5dALWO2dCIAn9WZM2eKsWPHyqTrtWvXFkOGDBFnn312OgHhrInAfxAgQeQ2IAJEoBACSSeIarJbtmwRSFfyxBNPCJSPO+mkk0SXLl1kBPT+++/PXZECBFCacMqUKVKzDM1hp06dxGWXXSbatGmTgtlzikQgMwIkiNwhRIAIpJIg6pNevny5JAlPP/20+PXXX0WLFi0kUcRRuXJl7pAEIbB48WIxdepUeaxYsULUq1dPuhpceumlrMCToHXmVNwjQILoHkP2QAQShUBaNIh2i/bmm2+KadOmiRdeeEGSxfr164tTTz1VtGzZUmoZS5cunaj1TvpkfvzxR4GSePPmzZMVdtauXSvrdSNQqWPHjqJWrVpJh4DzIwJ5IUCCmBdsvIgIJBeBtBNEfWVnz54tZsyYIQkGajyjoeZu69atRatWrSRpZIsWAiD1WLe5c+fKdYN2uFSpUqJp06bSdAxiWKNGjWgJTWmIQAQRIEGM4KJQJCIQJgIkiNboo3zfnDlz5AECgtyK0CaCeCjC2LBhQ1G0aNEwly91Y//xxx+SDKq1gV9hiRIlZCJrkHgcTZo0kf9jIwJEwDkCJIjOseKZRCAVCJAgOlvmDRs2SKKIA+QESbmhqTr66KOlCVMddevWFQceeKCzTnmWLQKINIbPIAggDmh08bpy5UpJyhs0aFBACJs1a0ZXAO4lIuASARJElwDyciKQNARIEPNbUfi2KbKI1zVr1hR0VLFiRQGiqBNH/E1/Rmus4TdoEsGlS5eK7du3ywtACBFcojSECCoqU6ZMfgvHq4gAEbBEgASRG4MIEIFCCJAgerMhfv75Z2mG/uqrrwq9gjiiustee+0lqlevvgdxrFmzZmqqvCAnpSKCulbwl19+kYuAJOZHHnmkDCRBbkL1etRRR5Fce7NN2QsRsEWABJGbgwgQARLEAPcASBFIo0kcYT7dsWOH1I4hD2OFChUENI94VYf5Xj8nbN/HrVu3yqhv/QDRy/Qe/oNo++233x4kEGQQBJolEQPcnByKCGgIkCByOxABIkCCGJE9ANPq+vXrBV5/+OEH+TcSOKsD7/F/u1a2bFnpB2keKC1YvHhxy89wLsyzf/31lzTh6gcIq/k/q/cgh1YN4x588MEyl6T5WqVKFXHQQQfJz8qXLx+RFaAYRIAIKARIELkXiAARIEGM2R746aefCpFGEEoQt127dmU9/v77b8tzYPJG6UEnB7SV5nnlypXbgwSS+MVsY1FcIkANIvcAESACdgjQB5F7gwgQASJABKhB5B4gAkSAGkTuASJABIgAESiEAAkiNwQRIAIkiNwDRIAIEAEiQILIPUAEiIA9AjQxc3cQASJABIgANYjcA0SACFCDyD1ABIgAESAC1CByDxABIkANIvcAESACRIAI2CNADSJ3BxEgAtQgcg8QASJABIgANYjcA0SACFCDyD1ABIgAESAC1CByDxABIuAQAQapOASKpxEBIkAEEowATcwJXlxOjQjkgwAJYj6o8RoiQASIQLIQIEFM1npyNkTANQIkiK4hZAdEgKGIBiEAAADpSURBVAgQgdgjQIIY+yXkBIiAtwiQIHqLJ3sjAkSACMQRARLEOK4aZSYCPiJAgugjuOyaCBABIhATBEgQY7JQFJMIBIUACWJQSHMcIkAEiEB0ESBBjO7aUDIiEAoCJIihwM5BiQARIAKRQoAEMVLLQWGIQPgIkCCGvwaUgAgQASIQNgIkiGGvAMcnAhFDgAQxYgtCcYgAESACISBAghgC6BySCEQZARLEKK8OZSMCRIAIBIMACWIwOHMUIhAbBEgQY7NUFJQIEAEi4BsCJIi+QcuOiUA8ESBBjOe6UWoiQASIgJcI+E0Q/z8+7+4UzFuJcAAAAABJRU5ErkJggg==;" vertex="1" parent="1">
          <mxGeometry x="1010" y="-5" width="341.52" height="390" as="geometry" />
        </mxCell>
        <mxCell id="zb4zIpcoGcX_HHcXuBXP-2" value="" style="shape=umlActor;verticalLabelPosition=bottom;verticalAlign=top;html=1;" vertex="1" parent="1">
          <mxGeometry x="7" y="40" width="20" height="40" as="geometry" />
        </mxCell>
        <mxCell id="zb4zIpcoGcX_HHcXuBXP-3" value="&lt;div align=&quot;left&quot;&gt;validateCredentials&lt;/div&gt;" style="endArrow=classic;html=1;rounded=0;exitX=0.52;exitY=0.285;exitDx=0;exitDy=0;exitPerimeter=0;align=left;" edge="1" parent="1" target="aM9ryv3xv72pqoxQDRHE-6">
          <mxGeometry width="50" height="50" relative="1" as="geometry">
            <mxPoint x="272" y="120" as="sourcePoint" />
            <mxPoint x="280" y="140" as="targetPoint" />
            <Array as="points">
              <mxPoint x="310" y="120" />
              <mxPoint x="310" y="140" />
            </Array>
          </mxGeometry>
        </mxCell>
        <mxCell id="zb4zIpcoGcX_HHcXuBXP-5" value="loginRequest" style="html=1;verticalAlign=bottom;endArrow=block;edgeStyle=elbowEdgeStyle;elbow=vertical;curved=0;rounded=0;" edge="1" parent="1" source="aM9ryv3xv72pqoxQDRHE-1">
          <mxGeometry relative="1" as="geometry">
            <mxPoint x="95" y="180" as="sourcePoint" />
            <Array as="points">
              <mxPoint x="180" y="180" />
            </Array>
            <mxPoint x="265" y="180" as="targetPoint" />
          </mxGeometry>
        </mxCell>
        <mxCell id="zb4zIpcoGcX_HHcXuBXP-6" value="VirtualTriage" style="shape=umlLifeline;perimeter=lifelinePerimeter;whiteSpace=wrap;html=1;container=0;dropTarget=0;collapsible=0;recursiveResize=0;outlineConnect=0;portConstraint=eastwest;newEdgeStyle={&quot;edgeStyle&quot;:&quot;elbowEdgeStyle&quot;,&quot;elbow&quot;:&quot;vertical&quot;,&quot;curved&quot;:0,&quot;rounded&quot;:0};" vertex="1" parent="1">
          <mxGeometry x="408" y="40" width="100" height="300" as="geometry" />
        </mxCell>
        <mxCell id="zb4zIpcoGcX_HHcXuBXP-7" value="" style="html=1;points=[];perimeter=orthogonalPerimeter;outlineConnect=0;targetShapes=umlLifeline;portConstraint=eastwest;newEdgeStyle={&quot;edgeStyle&quot;:&quot;elbowEdgeStyle&quot;,&quot;elbow&quot;:&quot;vertical&quot;,&quot;curved&quot;:0,&quot;rounded&quot;:0};" vertex="1" parent="zb4zIpcoGcX_HHcXuBXP-6">
          <mxGeometry x="45" y="80" width="10" height="170" as="geometry" />
        </mxCell>
        <mxCell id="zb4zIpcoGcX_HHcXuBXP-9" value="ED" style="shape=umlLifeline;perimeter=lifelinePerimeter;whiteSpace=wrap;html=1;container=0;dropTarget=0;collapsible=0;recursiveResize=0;outlineConnect=0;portConstraint=eastwest;newEdgeStyle={&quot;edgeStyle&quot;:&quot;elbowEdgeStyle&quot;,&quot;elbow&quot;:&quot;vertical&quot;,&quot;curved&quot;:0,&quot;rounded&quot;:0};" vertex="1" parent="1">
          <mxGeometry x="560" y="40" width="100" height="300" as="geometry" />
        </mxCell>
        <mxCell id="zb4zIpcoGcX_HHcXuBXP-10" value="" style="html=1;points=[];perimeter=orthogonalPerimeter;outlineConnect=0;targetShapes=umlLifeline;portConstraint=eastwest;newEdgeStyle={&quot;edgeStyle&quot;:&quot;elbowEdgeStyle&quot;,&quot;elbow&quot;:&quot;vertical&quot;,&quot;curved&quot;:0,&quot;rounded&quot;:0};" vertex="1" parent="zb4zIpcoGcX_HHcXuBXP-9">
          <mxGeometry x="45" y="80" width="10" height="170" as="geometry" />
        </mxCell>
        <mxCell id="zb4zIpcoGcX_HHcXuBXP-11" value="Patient" style="shape=umlLifeline;perimeter=lifelinePerimeter;whiteSpace=wrap;html=1;container=0;dropTarget=0;collapsible=0;recursiveResize=0;outlineConnect=0;portConstraint=eastwest;newEdgeStyle={&quot;edgeStyle&quot;:&quot;elbowEdgeStyle&quot;,&quot;elbow&quot;:&quot;vertical&quot;,&quot;curved&quot;:0,&quot;rounded&quot;:0};" vertex="1" parent="1">
          <mxGeometry x="720" y="40" width="100" height="300" as="geometry" />
        </mxCell>
        <mxCell id="zb4zIpcoGcX_HHcXuBXP-12" value="" style="html=1;points=[];perimeter=orthogonalPerimeter;outlineConnect=0;targetShapes=umlLifeline;portConstraint=eastwest;newEdgeStyle={&quot;edgeStyle&quot;:&quot;elbowEdgeStyle&quot;,&quot;elbow&quot;:&quot;vertical&quot;,&quot;curved&quot;:0,&quot;rounded&quot;:0};" vertex="1" parent="zb4zIpcoGcX_HHcXuBXP-11">
          <mxGeometry x="45" y="80" width="10" height="170" as="geometry" />
        </mxCell>
      </root>
    </mxGraphModel>
  </diagram>
</mxfile>
